<svg width="1652" height="2307" viewBox="0 0 1652 2307" fill="none" xmlns="http://www.w3.org/2000/svg">
<path d="M588.993 150.581L598.599 162.315C603.891 168.756 611.023 177.499 614.532 181.755C617.983 186.012 623.85 193.144 627.474 197.573C631.097 202.002 638.402 210.917 643.636 217.301C648.871 223.743 655.715 232.198 658.879 236.052C662.042 239.906 667.622 246.75 671.245 251.237C674.869 255.665 677.918 259.289 678.033 259.174C678.148 259.059 678.033 200.679 677.803 129.472L677.4 0H588.993V150.581Z" fill="#009FE3"/>
<path d="M437.374 10.5255C427.25 23.9271 405.336 52.916 394.637 67.0078C389.863 73.3347 382.213 83.4002 377.669 89.4396C373.125 95.4214 365.993 104.912 361.794 110.433C357.595 115.955 348.564 127.861 341.777 136.892C334.933 145.922 327.8 155.355 325.845 157.885C323.889 160.416 317.849 168.411 312.328 175.716C306.806 182.963 299.213 193.086 295.359 198.148C291.506 203.209 283.856 213.275 278.391 220.58C272.87 227.827 266.025 236.915 263.149 240.711C260.273 244.507 253.371 253.537 247.906 260.842C242.385 268.089 236.345 276.141 234.389 278.672C232.434 281.203 225.992 289.716 220.01 297.653C214.028 305.533 205.63 316.691 201.316 322.386C188.892 338.721 175.605 356.321 158.119 379.443L142.014 400.84L142.992 404.176C143.567 406.016 145.235 411.25 146.731 415.852C150.757 428.505 156.739 447.141 160.305 458.415C162.031 463.936 164.216 470.666 165.079 473.369C166 476.072 168.185 482.917 169.968 488.611C171.751 494.306 173.362 499.425 173.65 500.057C173.995 500.92 176.525 497.872 186.649 484.297C193.609 475.095 199.706 466.927 200.166 466.237C200.626 465.547 217.709 442.77 238.071 415.564C323.946 300.874 396.42 204.072 423.051 168.354C434.785 152.651 444.621 139.825 444.909 139.825C445.254 139.825 449.913 145.692 455.262 152.824C460.669 160.014 469.182 171.345 474.243 178.017C484.309 191.303 491.729 201.081 509.272 224.318C515.599 232.716 523.882 243.702 527.736 248.763C531.59 253.825 539.47 264.293 545.337 272.058C551.146 279.823 556.035 286.265 556.265 286.437C556.438 286.61 558.796 289.716 561.499 293.339C566.158 299.551 570.012 304.67 594.745 337.34C616.027 365.466 622.469 374.036 632.133 386.805C637.597 394.052 645.362 404.291 649.331 409.525C653.3 414.701 656.981 419.533 657.441 420.223C657.901 420.913 661.927 426.262 666.356 432.072C676.192 444.956 695.001 469.861 707.885 487.001C713.637 494.593 717.663 499.482 717.893 499.079C718.123 498.677 720.252 492.062 722.667 484.297C725.083 476.533 728.477 465.777 730.145 460.428C731.87 455.021 734.229 447.544 735.379 443.748C736.529 439.952 738.888 432.417 740.556 427.068C742.281 421.661 744.927 413.263 746.48 408.374L749.299 399.459L747.228 396.756C743.604 391.982 733.481 378.638 720.999 362.36C714.385 353.675 707.425 344.587 705.642 342.229C692.873 325.492 689.479 321.063 681.311 310.364C676.25 303.692 669.347 294.662 665.896 290.233C662.503 285.747 656.808 278.212 653.185 273.496C649.561 268.722 642.946 260.094 638.46 254.227C623.62 234.786 601.13 205.337 594.86 197.055C592.732 194.237 589.799 190.383 588.303 188.427C585.6 185.034 570.932 165.765 548.04 135.741C529.231 111.124 514.334 91.5102 513.068 89.8997C510.595 86.6212 498.516 70.8614 490.233 60.0481C485.862 54.2964 479.075 45.3812 475.106 40.2046C471.137 35.028 464.983 26.918 461.359 22.1441C450.776 8.22483 445.599 1.49527 445.254 1.03513C445.024 0.805064 441.515 5.06136 437.374 10.5255Z" fill="#009FE3"/>
<path d="M327.052 371.103C325.787 375.014 322.681 384.62 320.093 392.557C317.504 400.437 312.213 416.657 308.301 428.506C304.447 440.354 299.903 454.216 298.235 459.277C296.567 464.339 292.196 477.798 288.457 489.187C284.776 500.575 280.347 514.034 278.679 519.096C277.011 524.157 273.272 535.661 270.339 544.691C267.405 553.721 262.861 567.525 260.273 575.463C254.751 592.258 252.105 600.31 240.717 635.281C236.058 649.488 230.133 667.779 227.487 675.831C224.841 683.883 221.045 695.387 219.089 701.426C217.134 707.408 214.2 716.496 212.532 721.557C210.864 726.619 205.803 742.034 201.316 755.78C189.64 791.556 183.025 811.802 181.472 816.461C180.782 818.647 177.158 829.805 173.419 841.194C169.738 852.582 165.309 866.042 163.641 871.103C161.973 876.165 157.429 890.026 153.575 901.875C144.718 929.138 133.789 962.498 132.063 967.732C131.316 969.918 127.692 981.077 123.953 992.465C120.272 1003.85 115.901 1017.31 114.175 1022.37C112.507 1027.44 107.963 1041.3 104.109 1053.15C100.255 1064.99 95.7114 1078.86 94.0434 1083.92C92.3753 1088.98 88.0039 1102.44 84.2652 1113.83C71.7261 1152.42 67.7573 1164.44 64.9388 1173.01C63.3858 1177.73 62.1204 1181.64 62.1204 1181.76C62.1204 1181.87 95.4814 1181.99 136.262 1181.99H210.404L211.324 1179.51C212.072 1177.56 224.151 1139.65 229.27 1123.32C230.018 1120.96 233.239 1110.84 236.403 1100.89C239.624 1090.94 242.845 1080.81 243.592 1078.45C252.163 1051.25 257.34 1035.03 258.202 1032.44C259.238 1029.51 261.768 1021.45 268.211 1001.09L270.741 993.04L626.323 992.753L628.394 999.482C629.544 1003.22 631.385 1008.97 632.478 1012.31C635.814 1022.37 637.654 1028.24 641.048 1039.05C642.831 1044.75 645.017 1051.59 645.937 1054.3C646.857 1057 649.043 1063.84 650.826 1069.54C652.609 1075.23 654.68 1081.67 655.37 1083.92C656.118 1086.1 658.476 1093.35 660.604 1100.02C662.675 1106.64 665.781 1116.36 667.507 1121.59C669.175 1126.83 672.108 1136.14 674.064 1142.3C679.586 1159.55 683.957 1173.24 685.51 1177.79L686.948 1181.99H760.457C800.951 1181.99 834.024 1181.81 834.024 1181.58C834.024 1181.12 828.272 1163.23 821.082 1141.44C818.494 1133.5 813.95 1119.69 811.016 1110.66C808.083 1101.63 804.344 1090.13 802.676 1085.07C801.008 1080.01 797.384 1069.02 794.681 1060.62C791.92 1052.23 787.549 1038.77 784.845 1030.71C782.199 1022.66 777.023 1006.73 773.284 995.341C769.603 983.953 765.174 970.493 763.563 965.432C761.895 960.37 757.351 946.509 753.497 934.66C749.644 922.811 745.1 908.95 743.432 903.888C741.764 898.826 738.197 887.956 735.494 879.731C732.848 871.506 728.419 858.047 725.716 849.822C723.07 841.597 717.663 825.147 713.809 813.298C709.956 801.449 705.412 787.588 703.744 782.526C702.076 777.464 698.394 766.306 695.633 757.793C692.873 749.223 688.501 735.764 685.855 727.884C683.267 719.947 678.09 704.187 674.409 692.799C670.67 681.41 666.299 667.951 664.631 662.89C662.963 657.828 658.419 643.966 654.565 632.118C650.711 620.269 646.167 606.407 644.499 601.346C642.831 596.284 639.207 585.126 636.447 576.613C633.628 568.043 630.004 556.942 628.336 551.881C626.668 546.819 621.492 531.002 616.833 516.795C604.121 477.798 598.944 461.923 595.608 451.8C593.94 446.739 590.201 435.235 587.268 426.205C584.334 417.175 579.79 403.313 577.202 395.433C574.614 387.496 571.22 377.257 569.725 372.541L566.964 364.086H329.296L327.052 371.103ZM468.089 498.504C469.239 501.898 470.102 504.486 476.256 523.985C478.212 530.139 480.398 536.984 481.146 539.227C481.836 541.413 483.216 545.726 484.194 548.717C485.114 551.708 487.473 559.07 489.428 565.11C491.326 571.092 494.317 580.409 496.043 585.816C499.552 596.802 507.604 621.822 512.148 636.144C513.816 641.378 516.807 650.696 518.763 656.85C520.776 663.005 523.709 672.322 525.378 677.556C527.103 682.791 530.037 692.108 531.992 698.263C534.005 704.417 537.802 716.323 540.448 724.721C543.151 733.118 546.775 744.334 548.5 749.741C550.226 755.09 552.354 761.82 553.274 764.696C554.195 767.514 556.553 774.934 558.508 781.088C560.464 787.242 563.455 796.56 565.123 801.794C566.849 807.028 569.782 816.346 571.738 822.501C573.693 828.655 575.879 835.5 576.627 837.743C577.375 839.929 579.33 846.025 580.998 851.26C582.609 856.494 584.104 861.095 584.219 861.44C584.449 862.015 557.128 862.188 448.705 862.188C340.052 862.188 312.903 862.015 312.903 861.44C312.903 860.577 312.558 861.728 320.668 836.305C324.349 824.744 327.858 813.758 328.433 811.86C329.008 809.962 332.689 798.573 336.486 786.552C340.339 774.531 343.963 763.143 344.596 761.245C346.724 754.227 363.002 703.094 363.807 700.851C364.21 699.586 366.165 693.489 368.121 687.335C373.125 671.46 378.417 654.722 379.452 651.674C379.912 650.236 381.063 646.727 381.925 643.909C386.527 629.184 395.27 601.633 396.018 599.62C396.478 598.355 398.548 591.855 400.619 585.241C402.69 578.569 405.048 571.207 405.796 568.848C406.543 566.49 408.097 561.544 409.247 557.92C410.397 554.296 411.95 549.465 412.698 547.279C413.388 545.036 414.769 540.78 415.747 537.789C417.357 532.785 418.68 528.529 426.503 503.681L429.206 495.226H466.938L468.089 498.504Z" fill="#009FE3"/>
<path d="M1249.89 888.243C1249.71 888.416 1247.01 888.646 1243.85 888.818C1239.13 889.106 1224.86 890.486 1213.36 891.752C1208.53 892.327 1188.86 895.721 1181.44 897.274C1130.59 908.087 1084.29 927.47 1042.82 955.309C1008.77 978.143 978.109 1007.13 953.261 1040.03C944.633 1051.42 934.107 1067.24 928.067 1077.94C926.514 1080.58 924.559 1084.03 923.638 1085.64C922.718 1087.2 919.324 1093.81 916.103 1100.31C901.896 1128.72 890.968 1158.81 884.008 1188.6C881.765 1198.21 878.831 1212.93 878.313 1216.78C878.026 1219.03 877.393 1223.17 876.933 1225.99C876.415 1228.86 876.013 1231.39 876.013 1231.68C876.013 1232.2 713.752 1231.97 324.119 1230.88C85.4731 1230.24 46.0151 1230.3 45.3824 1231.45C44.8647 1232.49 44.4046 1233.69 31.6354 1270.27C26.2286 1285.75 20.9944 1300.59 20.0741 1303.17C15.9903 1314.79 10.1808 1331.24 3.10602 1351.6C1.38045 1356.44 0 1360.81 0 1361.21C0 1361.9 6.55715 1362.02 40.2632 1362.02H80.5264V1473.02H180.034V1362.02H231.801L231.916 1383.41L232.089 1404.87L403.207 1405.15V1362.02L639.38 1361.9C769.258 1361.79 875.668 1361.9 875.783 1362.07C875.898 1362.25 876.53 1366.04 877.163 1370.41C879.349 1384.96 883.663 1405.84 886.769 1417.23C900.286 1466.75 920.13 1508.8 948.371 1548.08C958.782 1562.52 970.401 1576.04 985.586 1591.28C1001.86 1607.67 1009.17 1614.06 1025.27 1626.14C1080.26 1667.49 1146.01 1693.6 1216.75 1702.23C1223.14 1703.04 1229.35 1703.78 1230.62 1703.96C1235.97 1704.59 1268.18 1705.97 1277.21 1705.91C1286.7 1705.86 1317.41 1704.53 1322.07 1704.01C1329.32 1703.15 1344.22 1701.31 1345.94 1701.08C1349.74 1700.62 1367.51 1697.34 1374.41 1695.9C1399.15 1690.56 1424.34 1682.45 1448.33 1672.03C1455 1669.1 1475.42 1658.92 1478.7 1656.85C1480.02 1656.05 1481.23 1655.35 1481.34 1655.35C1481.92 1655.35 1498.77 1644.94 1505.27 1640.52C1537.54 1618.66 1567.33 1589.73 1591.95 1556.42C1615.53 1524.44 1633.82 1487.98 1643.54 1453.3C1646.94 1441.22 1649.35 1429.54 1651.54 1414.3L1651.83 1412.17L1634.51 1411.83C1624.97 1411.6 1591.15 1411.48 1559.39 1411.6C1508.78 1411.77 1501.59 1411.88 1501.19 1412.63C1500.96 1413.09 1498.02 1419.07 1494.74 1425.86C1477.6 1460.89 1457.76 1486.14 1429.86 1508.22C1403.29 1529.22 1375.45 1542.28 1338.75 1550.9C1330.07 1552.92 1312.35 1555.73 1305.39 1556.14C1302.23 1556.37 1299.01 1556.65 1298.2 1556.77C1297.4 1556.94 1290.95 1557.23 1283.88 1557.4C1267.49 1557.86 1248.56 1556.54 1234.93 1554.07C1209.56 1549.41 1186.15 1541.01 1166.48 1529.51C1134.45 1510.81 1108.16 1484.76 1088.08 1451.92C1084.17 1445.53 1074.4 1426.72 1072.27 1421.49C1063.12 1399 1055.53 1372.25 1053.17 1353.96C1052.88 1351.6 1052.08 1345.91 1051.45 1341.31C1049.14 1324.46 1048.51 1282.12 1050.29 1262.8C1052.08 1242.95 1057.08 1217.76 1062.89 1198.67C1072.73 1166.63 1090.21 1134.42 1110.86 1110.38C1117.25 1102.96 1131.63 1089.09 1139.33 1082.94C1145.89 1077.71 1155.38 1071.03 1163.89 1065.68C1171.54 1060.91 1188.8 1052.69 1198.41 1049.29C1216.06 1043.02 1235.62 1038.77 1254.49 1037.1C1262.94 1036.29 1292.97 1036.29 1301.94 1037.1C1323.45 1038.94 1347.96 1044.17 1367.63 1051.19C1409.85 1066.2 1445.85 1094.1 1472.71 1132.52C1479.44 1142.07 1487.61 1155.41 1490.95 1162.26L1492.16 1164.73H1525.92C1544.44 1164.73 1580.39 1164.9 1605.81 1165.13L1652 1165.48L1651.71 1164.1C1651.54 1163.35 1650.73 1159.21 1649.93 1154.95C1647.57 1142.07 1644.18 1130.39 1638.37 1115.27C1636.12 1109.34 1635.66 1108.25 1631.47 1099.16C1627.21 1089.84 1622.44 1080.81 1615.99 1070.11C1609.32 1059.07 1607.71 1056.6 1597.01 1041.64C1583.96 1023.41 1564.23 1001.78 1542.94 982.342C1533.45 973.599 1513.9 958.415 1503.6 951.685C1487.9 941.389 1460 926.205 1447.75 921.316C1445.68 920.453 1442.06 918.958 1439.7 917.98C1435.21 916.082 1428.37 913.493 1418.99 910.272C1390.92 900.552 1360.78 893.995 1328.97 890.659C1321.73 889.911 1314.48 889.106 1312.87 888.934C1309.71 888.473 1250.29 887.898 1249.89 888.243Z" fill="#009FE3"/>
<path d="M1366.65 1787.01C1353.53 1793.91 1336.91 1802.54 1329.72 1806.28L1316.61 1813.01V1829.12C1316.61 1837.92 1316.72 1845.16 1316.9 1845.16C1317.01 1845.16 1326.56 1840.79 1338 1835.44C1349.51 1830.15 1365.38 1822.79 1373.26 1819.11C1381.2 1815.48 1388.62 1812.03 1389.83 1811.46L1391.96 1810.42V1792.42C1391.96 1778.38 1391.78 1774.42 1391.27 1774.47C1390.86 1774.47 1379.76 1780.11 1366.65 1787.01Z" fill="white"/>
<path d="M337.348 1860.12C311.005 1862.36 290.931 1871.79 278.621 1887.84C269.131 1900.09 265.162 1918.09 267.75 1936.44C269.073 1945.65 271.029 1950.76 276.263 1958.36C285.236 1971.36 300.536 1979.58 335.393 1990.16C361.506 1998.04 373.585 2003.68 380.142 2011.16C386.699 2018.64 388.08 2029.62 383.593 2039.46C381.638 2043.89 375.541 2050.21 371.284 2052.34C359.263 2058.44 338.614 2058.78 325.729 2053.09C321.128 2051.02 315.721 2046.99 312.903 2043.48C309.969 2039.86 306.231 2032.44 305.713 2029.16C305.425 2027.38 305.08 2026.92 304.39 2027.15C303.815 2027.32 295.417 2029.68 285.581 2032.44C275.803 2035.14 266.945 2037.62 265.91 2037.96C264.184 2038.42 264.069 2038.59 264.414 2040.32C265.68 2047.16 270.339 2056.94 275.803 2064.19C287.652 2079.95 311.062 2091.22 337.061 2093.7C345.919 2094.5 364.095 2094.04 371.284 2092.78C401.137 2087.6 421.959 2070.17 428.803 2044.69C432.772 2029.91 431.794 2012.02 426.33 1999.71C424.834 1996.26 420.118 1989.36 416.782 1985.68C413.158 1981.65 408.097 1977.74 401.194 1973.6C391.474 1967.73 383.306 1964.45 359.493 1956.8C332.574 1948.06 324.119 1944.38 318.31 1938.63C313.708 1934.14 312.27 1930.4 312.27 1923.39C312.27 1916.02 314.456 1910.91 319.632 1906.07C330.906 1895.49 352.016 1893.42 368.523 1901.18C376.634 1905.04 381.58 1909.81 384.571 1916.83C385.492 1918.84 386.354 1920.51 386.527 1920.45C386.699 1920.45 395.73 1918.04 406.659 1915.16L426.503 1909.87L426.388 1908.32C426.33 1907.51 425.352 1904.58 424.144 1901.76C414.769 1879.96 393.142 1865.01 365.245 1861.04C357.422 1859.94 344.653 1859.48 337.348 1860.12Z" fill="white"/>
<path d="M731.353 1860.12C694.483 1863.22 669.29 1881.28 662.963 1909.06C659.684 1923.39 660.95 1940.81 666.069 1951.05C671.188 1961.41 678.263 1968.37 690.917 1975.5C698.567 1979.87 709.093 1983.78 732.158 1990.97C747.631 1995.74 755.108 1998.62 762.355 2002.36C775.067 2009.03 781.279 2018.35 780.359 2029.51C779.208 2042.97 769.603 2052.97 754.935 2056.02C748.263 2057.4 735.839 2057.29 728.764 2055.85C714.845 2052.92 704.664 2044 700.58 2031.23C699.832 2028.99 699.257 2027.15 699.2 2027.09C699.142 2027.03 690.054 2029.56 679.01 2032.61C661.237 2037.56 658.879 2038.36 658.706 2039.46C658.419 2041.3 661.812 2050.85 664.458 2055.68C667.622 2061.49 670.728 2065.4 676.652 2071.09C692.527 2086.33 715.823 2094.21 744.927 2094.21C767.762 2094.21 784.845 2089.5 799.167 2079.2C815.503 2067.53 824.476 2050.04 825.281 2028.53C826.201 2002.01 815.963 1984.59 791.46 1971.24C784.27 1967.33 778.288 1965.03 756.719 1957.84C730.662 1949.15 722.61 1945.99 716.915 1942.19C708.92 1936.85 705.929 1930.98 706.447 1921.83C706.907 1913.95 710.531 1907.91 717.663 1903.08C722.38 1899.86 728.822 1897.62 735.782 1896.81C749.356 1895.15 765.922 1900.44 773.744 1908.95C776.448 1911.88 779.381 1916.77 779.381 1918.32C779.439 1920.68 780.071 1920.63 796.407 1916.31C805.207 1913.95 814.352 1911.54 816.653 1910.96L820.91 1909.87L820.622 1908.09C820.449 1907.11 819.357 1904.12 818.149 1901.47C809.406 1882.09 792.668 1868.86 769.718 1863.05C759.307 1860.4 742.856 1859.14 731.353 1860.12Z" fill="white"/>
<path d="M958.265 1860.12C933.934 1861.9 911.042 1870.87 892.578 1885.83C886.826 1890.49 877.393 1900.55 873.022 1906.76C862.956 1920.86 856.284 1936.73 852.948 1954.68C851.395 1962.79 850.819 1982.46 851.797 1991.31C853.523 2006.21 857.261 2019.15 863.531 2031.69C869.168 2042.85 875.322 2051.54 883.778 2060.05C894.361 2070.69 904.6 2077.88 917.426 2083.63C932.899 2090.53 945.898 2093.41 963.729 2094.04C986.046 2094.79 1003.24 2091.22 1021.82 2082.14C1048.51 2069.02 1067.26 2048.49 1077.9 2020.59C1086.65 1997.76 1087.8 1966.75 1080.84 1942.71C1068.47 1900.09 1034.76 1869.61 991.453 1861.84C980.064 1859.77 970.114 1859.31 958.265 1860.12ZM979.374 1898.71C1010.32 1902.91 1033.21 1926.09 1038.79 1958.76C1042.36 1979.98 1039.77 2000.86 1031.54 2017.31C1021.19 2037.9 1004.97 2050.33 982.135 2055.16C976.383 2056.42 959.127 2056.08 952.513 2054.7C931.001 2050.04 914.665 2037.21 905.06 2017.49C901.551 2010.35 899.595 2004.6 898.215 1997.81C893.901 1976.13 896.374 1953.35 905.06 1935.93C915.183 1915.74 933.589 1902.11 955.101 1898.94C961.543 1898.02 973.392 1897.91 979.374 1898.71Z" fill="white"/>
<path d="M91.9727 1863.4C91.1099 1865.7 68.7926 1927.7 61.8328 1947.26C58.5542 1956.4 51.7095 1975.55 46.5903 1989.82C41.4711 2004.03 34.2237 2024.21 30.485 2034.68C26.7463 2045.09 20.7068 2062.06 17.0256 2072.24C13.3444 2082.48 10.3534 2091.11 10.3534 2091.4C10.3534 2091.74 19.5564 2091.86 33.1884 2091.8L56.0234 2091.63L57.2888 2088.17C58.0366 2086.28 62.1779 2074.43 66.5494 2061.89L74.487 2039H183.888L189.755 2055.79C193.033 2065.05 197.175 2076.9 198.958 2082.14L202.294 2091.63L225.129 2091.8C239.854 2091.86 247.906 2091.74 247.906 2091.34C247.906 2091.05 246.986 2088.4 245.893 2085.47C243.88 2079.95 232.779 2049.12 222.311 2019.73C219.032 2010.53 212.302 1991.77 207.356 1978.03C197.635 1951.05 188.604 1925.8 174.685 1886.86L165.827 1862.13L129.187 1861.96L92.6054 1861.84L91.9727 1863.4ZM142.244 1920.4C146.328 1932.01 154.381 1955.08 160.248 1971.64C166.057 1988.21 170.831 2001.84 170.831 2001.96C170.831 2002.07 152.195 2002.19 129.418 2002.19C94.1584 2002.19 88.0039 2002.07 88.0039 2001.38C88.0039 2000.92 90.8799 1992.35 94.3885 1982.23C97.8972 1972.16 102.671 1958.47 104.972 1951.86C107.273 1945.19 111.932 1931.9 115.325 1922.24C118.661 1912.57 121.883 1903.49 122.4 1901.93L123.378 1899.23H134.882L142.244 1920.4Z" fill="white"/>
<path d="M467.456 1862.25C467.226 1862.42 467.053 1914.18 467.053 1977.28V2091.91L628.969 2091.63L629.142 2073.39L629.257 2055.1L511.631 2054.81V1993.85L555.517 1993.67L599.347 1993.56V1957.9L555.517 1957.78L511.631 1957.61V1899.52L628.969 1898.94V1862.13L548.385 1861.96C504.096 1861.9 467.629 1862.02 467.456 1862.25Z" fill="white"/>
<path d="M1118.74 2091.91H1163.03V2004.49L1181.5 2004.6L1199.96 2004.77L1210.31 2022.6C1222.68 2043.89 1230.04 2056.6 1241.78 2076.79L1250.58 2091.91H1275.25C1288.83 2091.91 1299.93 2091.8 1299.93 2091.63C1299.93 2091.4 1292.91 2079.72 1262.08 2028.87C1252.82 2013.63 1245.28 2000.92 1245.28 2000.63C1245.28 2000.35 1246.72 1999.65 1248.51 1999.08C1253.62 1997.47 1263.92 1992.06 1268.81 1988.38C1282.33 1978.2 1291.41 1963.19 1294.52 1945.93C1295.67 1939.43 1295.67 1926.38 1294.52 1919.94C1292.39 1908.03 1286.81 1896.18 1279.34 1887.67C1268.69 1875.47 1254.37 1867.54 1237 1864.2C1226.53 1862.13 1217.21 1861.84 1167.23 1861.84H1118.74V2091.91ZM1221.7 1899.8C1235.91 1902.05 1244.36 1908.72 1248.51 1920.91C1249.89 1924.88 1250.06 1926.26 1250.06 1933.16C1250.06 1940.12 1249.89 1941.39 1248.51 1945.53C1247.64 1948.06 1246.26 1951.28 1245.46 1952.72C1242.01 1958.53 1235.91 1962.9 1227.45 1965.43C1223.25 1966.7 1222.33 1966.75 1193.11 1966.98L1163.03 1967.16V1899.23H1190.53C1206.4 1899.23 1219.52 1899.46 1221.7 1899.8Z" fill="white"/>
<path d="M1334.27 1862.25C1334.04 1862.42 1333.86 1914.18 1333.86 1977.28V2091.91H1378.15V1861.84H1356.41C1344.45 1861.84 1334.44 1862.02 1334.27 1862.25Z" fill="white"/>
<path d="M1485.08 1863.4C1484.73 1864.32 1481.8 1872.48 1478.52 1881.69C1475.24 1890.83 1472.2 1899.4 1471.74 1900.67C1471.22 1901.93 1467.54 1912.17 1463.51 1923.39C1459.54 1934.6 1452.24 1954.91 1447.35 1968.54C1442.46 1982.11 1435.15 2002.59 1431.07 2013.98C1415.42 2057.81 1410.82 2070.46 1409.5 2074.08C1405.53 2085.01 1403.46 2090.82 1403.46 2091.34C1403.46 2091.74 1411.4 2091.91 1426.35 2091.91H1449.19L1452.47 2082.54C1454.25 2077.42 1458.39 2065.57 1461.67 2056.25L1467.59 2039.28L1522.29 2039.11L1577 2039L1585.22 2062.41C1589.76 2075.35 1593.96 2087.25 1594.54 2088.86L1595.63 2091.91H1618.35C1632.16 2091.91 1641.01 2091.68 1641.01 2091.4C1641.01 2091.05 1639.46 2086.51 1637.51 2081.16C1635.61 2075.87 1631.47 2064.36 1628.36 2055.68C1625.25 2046.99 1622.21 2038.42 1621.57 2036.7C1620.94 2034.97 1617.89 2026.52 1614.84 2018C1611.74 2009.43 1608.29 1999.77 1607.08 1996.43C1605.87 1993.1 1602.13 1982.63 1598.74 1973.14C1595.34 1963.65 1591.49 1953.01 1590.28 1949.56C1589.02 1946.05 1587.23 1941.16 1586.37 1938.63C1585.45 1936.1 1582.52 1927.82 1579.76 1920.22C1577.05 1912.63 1574.29 1904.98 1573.66 1903.26C1573.08 1901.53 1569.52 1891.52 1565.78 1881.11L1558.93 1862.13L1522.29 1861.96L1485.71 1861.84L1485.08 1863.4ZM1538.8 1930.17C1544.78 1947.14 1552.89 1970.21 1556.81 1981.42C1560.72 1992.58 1563.94 2001.84 1563.94 2001.96C1563.94 2002.07 1545.3 2002.19 1522.52 2002.19C1488.07 2002.19 1481.11 2002.07 1481.11 2001.38C1481.11 2000.75 1486.75 1984.36 1498.94 1949.56C1500.5 1945.13 1505.1 1932.01 1509.12 1920.4L1516.49 1899.23H1527.99L1538.8 1930.17Z" fill="white"/>
<path d="M220.01 2146.27C212.475 2147.47 208.046 2148.68 202.524 2151.1C173.247 2163.69 157.659 2192.57 159.96 2229.96C161.168 2249.97 168.53 2267.34 181.185 2280C189.18 2287.99 198.325 2293.63 208.506 2296.85C226.682 2302.54 250.725 2300.76 267.175 2292.48C279.254 2286.44 290.988 2274.19 297.373 2260.96C298.638 2258.31 299.673 2255.9 299.673 2255.49C299.673 2255.09 298.868 2254.52 297.948 2254.17L296.222 2253.59L294.209 2257.74C287.71 2271.54 277.529 2282.01 264.299 2288.62C256.074 2292.71 248.424 2294.78 238.703 2295.47C211.267 2297.42 189.927 2287.47 176.123 2266.25C168.128 2254.06 164.504 2240.31 164.504 2222.59C164.504 2205.05 168.185 2191.42 176.238 2179.11C179.919 2173.42 186.304 2166.51 191.538 2162.54C196.657 2158.63 206.78 2153.74 213.683 2151.9C219.032 2150.47 220.297 2150.35 231.226 2150.35C243.592 2150.29 246.986 2150.75 255.959 2153.57C260.906 2155.12 269.016 2159.21 273.387 2162.31C277.586 2165.31 285.409 2173.24 288.227 2177.33C289.32 2178.88 291.333 2182.45 292.771 2185.15L295.359 2190.1L297.258 2189.29L299.098 2188.54L298.235 2186.36C292.081 2171.69 276.838 2156.62 262.574 2151.1C249.689 2146.09 232.894 2144.2 220.01 2146.27Z" fill="white"/>
<path d="M986.736 2146.27C971.436 2148.63 960.335 2154.03 949.809 2164.04C943.77 2169.79 940.549 2173.76 936.753 2180.26C932.324 2187.85 928.47 2199.82 927.262 2209.82C926.457 2216.09 926.457 2229.44 927.262 2235.71C930.426 2261.3 944.805 2282.58 966.03 2293.05C975.808 2297.83 986.219 2300.13 998.47 2300.13C1024.24 2300.13 1044.37 2290.46 1057.94 2271.54C1061.4 2266.71 1066.4 2257.39 1066.4 2255.72C1066.4 2255.21 1065.65 2254.52 1064.67 2254.23L1062.95 2253.59L1060.94 2257.97C1056.45 2267.63 1048.11 2277.87 1039.88 2283.62C1032.06 2289.14 1022.63 2292.99 1012.74 2294.72C1006.52 2295.76 991.856 2295.93 986.391 2294.95C965.742 2291.33 948.716 2278.61 939.283 2259.81C933.531 2248.42 931.518 2238.87 931.518 2222.77C931.518 2210.23 932.036 2206.14 934.797 2196.88C941.412 2174.62 958.897 2157.48 980.755 2151.96C991.626 2149.2 1006.87 2149.37 1018.77 2152.42C1036.61 2156.91 1051.91 2169.33 1060.13 2185.95C1062.03 2189.81 1062.95 2190.38 1064.9 2188.95C1065.88 2188.2 1065.82 2187.97 1063.81 2183.88C1055.99 2168.35 1042.7 2155.93 1028.04 2150.58C1015.44 2145.98 999.276 2144.25 986.736 2146.27Z" fill="white"/>
<path d="M334.185 2298.4H428.516V2294.37H339.361V2223.05L372.607 2222.94L405.796 2222.77L405.968 2220.58L406.141 2218.45H339.361V2151.16H428.516V2147.13H334.185V2298.4Z" fill="white"/>
<path d="M465.328 2298.4H469.929V2232.83L491.499 2232.72C503.348 2232.72 513.356 2232.66 513.701 2232.6C514.334 2232.54 517.958 2238.24 544.359 2280.17L555.805 2298.4H561.442L559.314 2295.12C558.163 2293.28 554.022 2286.72 550.168 2280.57C546.257 2274.42 537.917 2261.07 531.532 2251.01C525.205 2240.94 520.143 2232.49 520.258 2232.26C520.373 2232.03 521.926 2231.68 523.71 2231.45C527.966 2230.99 536.881 2228.06 540.275 2225.99C549.248 2220.69 554.942 2213.16 557.761 2202.92C559.256 2197.57 559.199 2181.24 557.761 2175.89C554.08 2162.77 545.509 2153.92 532.28 2149.83C525.032 2147.53 518.59 2147.13 490.924 2147.13H465.328V2298.4ZM517.267 2151.79C533.488 2153.17 543.036 2158.06 548.903 2167.89C556.495 2180.78 556.208 2200.74 548.155 2212.35C542.576 2220.52 533.603 2225.53 521.581 2227.31C516.865 2228.06 510.423 2228.23 492.707 2228.23H469.929V2151.16H490.233C501.335 2151.16 513.529 2151.44 517.267 2151.79Z" fill="white"/>
<path d="M582.091 2151.16L607.572 2151.27L632.995 2151.44L633.283 2298.4H637.885V2151.16H688.501V2147.13H582.091V2151.16Z" fill="white"/>
<path d="M719.561 2298.4H724.738L724.45 2147.42L722.035 2147.24L719.561 2147.07V2298.4Z" fill="white"/>
<path d="M765.576 2298.4H770.178V2223.05L803.424 2222.94L836.612 2222.77L836.785 2220.58L836.957 2218.45H770.178V2151.16H859.332V2147.13H765.576V2298.4Z" fill="white"/>
<path d="M890.968 2298.4H895.569V2147.13H890.968V2298.4Z" fill="white"/>
<path d="M1139.56 2150.12C1138.87 2151.79 1135.71 2160.01 1132.55 2168.41C1129.33 2176.81 1125.7 2186.24 1124.49 2189.41C1123.29 2192.57 1118.22 2205.74 1113.28 2218.74C1108.33 2231.68 1101.31 2249.97 1097.75 2259.29C1086.7 2288.11 1083.08 2297.65 1083.08 2298.06C1083.08 2298.23 1084.12 2298.4 1085.32 2298.4C1087.39 2298.4 1087.62 2298.23 1088.55 2295.93C1089.06 2294.6 1092.86 2284.83 1096.89 2274.24C1100.97 2263.66 1104.42 2254.52 1104.65 2253.94C1105.05 2253.02 1107.58 2252.96 1146.93 2252.96C1179.71 2252.96 1188.92 2253.13 1189.32 2253.65C1189.84 2254.34 1191.85 2259.52 1202.6 2288.16L1206.46 2298.4H1208.99C1211.12 2298.4 1211.41 2298.29 1211.06 2297.37C1209.62 2293.74 1197.49 2261.99 1192.08 2247.79C1190.01 2242.26 1187.94 2236.8 1187.48 2235.71C1187.02 2234.61 1185 2229.26 1182.93 2223.92C1180.92 2218.51 1177.12 2208.56 1174.54 2201.77C1171.95 2194.98 1167.29 2182.79 1164.18 2174.74C1161.13 2166.69 1157.51 2157.14 1156.13 2153.57L1153.66 2147.13H1140.71L1139.56 2150.12ZM1151.36 2153.28C1151.87 2154.49 1153.89 2159.73 1155.84 2164.96C1157.86 2170.19 1163.03 2183.77 1167.35 2195.16C1171.66 2206.55 1177.35 2221.56 1180 2228.52C1182.65 2235.48 1185.29 2242.55 1185.98 2244.22C1186.67 2245.89 1187.19 2247.61 1187.19 2248.07C1187.19 2248.82 1181.9 2248.94 1146.87 2248.94C1108.68 2248.94 1106.55 2248.88 1106.95 2247.9C1107.12 2247.38 1112.13 2234.38 1117.99 2219.03C1123.86 2203.67 1130.19 2187.1 1132.09 2182.22C1133.98 2177.33 1137.32 2168.53 1139.56 2162.72C1141.75 2156.85 1143.65 2151.9 1143.82 2151.62C1143.99 2151.39 1145.55 2151.16 1147.27 2151.16C1150.38 2151.16 1150.44 2151.21 1151.36 2153.28Z" fill="white"/>
<path d="M1233.78 2298.4H1261.56C1291.53 2298.4 1296.42 2298.06 1307.4 2295.24C1330.93 2289.31 1347.38 2274.36 1354.57 2252.33C1360.21 2235.07 1360.21 2210.74 1354.45 2193.14C1346.63 2168.87 1328.34 2154.09 1299.35 2148.51C1295.33 2147.7 1289.06 2147.53 1264.15 2147.3L1233.78 2147.01V2298.4ZM1286.7 2151.73C1296.59 2152.42 1302.8 2153.51 1310.28 2155.87C1333.35 2163.18 1347.9 2180.43 1352.73 2206.03C1354.11 2213.56 1354.05 2232.14 1352.61 2240.02C1350.03 2254.23 1344.73 2264.87 1335.65 2274.42C1326.16 2284.31 1313.44 2290.35 1296.36 2293.05C1290.9 2293.91 1285.83 2294.09 1264.27 2294.09H1238.67L1238.5 2223.34C1238.44 2184.4 1238.5 2152.25 1238.67 2151.85C1239.01 2150.98 1273.93 2150.87 1286.7 2151.73Z" fill="white"/>
<path d="M1425.38 2165.36C1416.86 2187.85 1414.22 2194.75 1412.95 2198.03C1412.2 2199.93 1409.21 2207.7 1406.34 2215.29C1400.64 2230.13 1390.98 2255.49 1382.75 2276.83C1379.99 2284.08 1376.25 2293.8 1374.53 2298.4L1371.31 2306.74L1373.67 2306.91C1374.93 2307.03 1376.02 2307.03 1376.08 2306.91C1376.14 2306.8 1380.11 2296.62 1384.83 2284.31L1393.4 2261.88H1477.83L1480.88 2269.93C1482.55 2274.36 1486.35 2284.42 1489.34 2292.36L1494.8 2306.74L1497.22 2306.91C1499.35 2307.09 1499.63 2306.97 1499.4 2306.05C1499.23 2305.48 1496.3 2297.77 1492.9 2288.91C1489.51 2280.05 1483.07 2263.09 1478.52 2251.24C1469.44 2227.31 1450.86 2178.82 1445.57 2164.96L1442.17 2156.05L1435.61 2155.87L1429.06 2155.76L1425.38 2165.36ZM1441.77 2166.97C1443.21 2170.77 1445.74 2177.5 1447.46 2181.93C1456.09 2204.42 1475.94 2256.99 1475.94 2257.33C1475.94 2257.45 1457.82 2257.56 1435.67 2257.56C1408.81 2257.56 1395.41 2257.39 1395.41 2256.99C1395.41 2256.36 1396.21 2254.23 1413.24 2209.82C1418.88 2195.1 1425.49 2177.84 1427.91 2171.4L1432.39 2159.73L1439.24 2160.07L1441.77 2166.97Z" fill="white"/>
</svg>
