<svg width="3103" height="3103" viewBox="0 0 3103 3103" fill="none" xmlns="http://www.w3.org/2000/svg">
<path d="M3010.84 2591.09L2444.97 2025.22L2534.42 1935.77L2463.88 1865.23L2374.43 1954.68L2257.39 1837.64C2308.73 1746.55 2347.14 1650.72 2370.34 1551.29H2598.92V1052.42H2370.34C2343.15 934.886 2297.45 824.137 2234.1 722.417L2395.38 561.082L2042.68 208.381L1881.35 369.666C1779.58 306.259 1668.83 260.563 1551.29 233.374V4.7914H1052.42V233.374C934.888 260.563 824.139 306.259 722.419 369.616L561.034 208.331L208.332 561.032L369.617 722.367C306.261 824.137 260.564 934.886 233.376 1052.42H4.79297V1551.29H233.376C260.564 1668.83 306.261 1779.57 369.617 1881.29L208.332 2042.68L561.034 2395.38L722.369 2234.1C824.089 2297.5 934.838 2343.2 1052.37 2370.34V2598.92H1551.24V2370.34C1650.67 2347.09 1746.45 2308.73 1837.59 2257.39L1954.63 2374.43L1865.18 2463.88L1935.72 2534.42L2025.17 2444.97L2591.04 3010.84C2647.16 3066.91 2721.69 3097.79 2800.96 3097.79C2964.64 3097.79 3097.79 2964.64 3097.79 2800.96C3097.79 2721.69 3066.91 2647.16 3010.84 2591.09ZM1491.98 2280.94L1451.52 2288.72V2499.15H1152.2V2288.77L1111.74 2280.99C978.689 2255.3 854.869 2204.16 743.621 2128.93L709.498 2105.84L560.984 2254.3L349.413 2042.68L497.877 1894.17L474.779 1860.04C399.55 1748.84 348.415 1624.97 322.723 1491.93L314.941 1451.52H104.567V1152.19H314.941L322.723 1111.74C348.415 978.687 399.55 854.868 474.779 743.619L497.877 709.497L349.413 561.032L561.034 349.411L709.548 497.875L743.671 474.778C854.869 399.548 978.739 348.414 1111.79 322.722L1152.2 314.939V104.566H1451.52V314.939L1491.98 322.722C1625.03 348.414 1748.85 399.548 1860.09 474.778L1894.22 497.875L2042.73 349.411L2254.35 561.032L2105.89 709.546L2128.99 743.669C2204.22 854.868 2255.35 978.737 2281.04 1111.79L2288.77 1152.19H2499.15V1451.52H2288.72L2280.94 1491.98C2262.83 1586.26 2229.71 1677.41 2183.91 1764.16L2110.18 1690.43C2167 1572.64 2199.83 1441.14 2199.83 1301.86C2199.83 806.726 1796.99 403.888 1301.86 403.888C806.728 403.888 403.89 806.726 403.89 1301.86C403.89 1796.99 806.728 2199.82 1301.86 2199.82C1441.14 2199.82 1572.64 2167 1690.38 2110.18L1764.11 2183.91C1677.36 2229.71 1586.26 2262.83 1491.98 2280.94ZM2100.05 1301.86C2100.05 1741.96 1741.96 2100.05 1301.86 2100.05C861.753 2100.05 503.664 1741.96 503.664 1301.86C503.664 861.752 861.753 503.662 1301.86 503.662C1741.96 503.662 2100.05 861.752 2100.05 1301.86ZM1781.17 2059.84C1893.42 1988.6 1988.6 1893.42 2059.84 1781.17L2303.89 2025.22L2025.22 2303.89L1781.17 2059.84ZM2800.96 2998.02C2748.33 2998.02 2698.85 2977.51 2661.63 2940.3L2095.76 2374.43L2374.43 2095.76L2940.3 2661.63C2977.52 2698.84 2998.02 2748.33 2998.02 2800.96C2998.02 2909.62 2909.62 2998.02 2800.96 2998.02Z" fill="#7B2CBF"/>
<path d="M1413.45 902.778C1413.45 908.386 1408.9 912.933 1403.28 912.933C1397.67 912.933 1393.12 908.386 1393.12 902.778C1393.12 897.169 1397.67 892.623 1403.28 892.623C1408.9 892.623 1413.45 897.169 1413.45 902.778Z" fill="#7B2CBF"/>
<path d="M1409.39 902.778C1409.39 906.143 1406.66 908.871 1403.29 908.871C1399.92 908.871 1397.19 906.143 1397.19 902.778C1397.19 899.412 1399.92 896.684 1403.29 896.684C1406.66 896.684 1409.39 899.412 1409.39 902.778Z" fill="black"/>
<path d="M1348.41 1183.06C1348.41 1188.67 1343.86 1193.22 1338.24 1193.22C1332.63 1193.22 1328.07 1188.67 1328.07 1183.06C1328.07 1177.45 1332.63 1172.91 1338.24 1172.91C1343.86 1172.91 1348.41 1177.45 1348.41 1183.06Z" fill="#7B2CBF"/>
<path d="M1344.33 1183.06C1344.33 1186.43 1341.6 1189.15 1338.23 1189.15C1334.86 1189.15 1332.13 1186.43 1332.13 1183.06C1332.13 1179.7 1334.86 1176.97 1338.23 1176.97C1341.6 1176.97 1344.33 1179.7 1344.33 1183.06Z" fill="black"/>
<path d="M1189.79 1317.11C1189.79 1322.72 1185.24 1327.26 1179.63 1327.26C1174.01 1327.26 1169.46 1322.72 1169.46 1317.11C1169.46 1311.5 1174.01 1306.95 1179.63 1306.95C1185.24 1306.95 1189.79 1311.5 1189.79 1317.11Z" fill="#7B2CBF"/>
<path d="M1185.73 1317.11C1185.73 1320.47 1183 1323.2 1179.63 1323.2C1176.26 1323.2 1173.53 1320.47 1173.53 1317.11C1173.53 1313.74 1176.26 1311.02 1179.63 1311.02C1183 1311.02 1185.73 1313.74 1185.73 1317.11Z" fill="black"/>
<path d="M986.462 1132.28C986.462 1139.02 981 1144.47 974.262 1144.47C967.525 1144.47 962.062 1139.02 962.062 1132.28C962.062 1125.55 967.525 1120.1 974.262 1120.1C981 1120.1 986.462 1125.55 986.462 1132.28Z" fill="#7B2CBF"/>
<path d="M981.583 1132.28C981.583 1136.32 978.306 1139.6 974.263 1139.6C970.22 1139.6 966.943 1136.32 966.943 1132.28C966.943 1128.25 970.22 1124.97 974.263 1124.97C978.306 1124.97 981.583 1128.25 981.583 1132.28Z" fill="black"/>
<path d="M1665.59 1625.83C1665.59 1631.44 1661.04 1635.98 1655.42 1635.98C1649.81 1635.98 1645.25 1631.44 1645.25 1625.83C1645.25 1620.22 1649.81 1615.67 1655.42 1615.67C1661.04 1615.67 1665.59 1620.22 1665.59 1625.83Z" fill="#7B2CBF"/>
<path d="M1661.51 1625.83C1661.51 1629.19 1658.78 1631.92 1655.41 1631.92C1652.04 1631.92 1649.31 1629.19 1649.31 1625.83C1649.31 1622.46 1652.04 1619.73 1655.41 1619.73C1658.78 1619.73 1661.51 1622.46 1661.51 1625.83Z" fill="black"/>
<path d="M1555.78 1227.74C1555.78 1233.35 1551.23 1237.9 1545.62 1237.9C1540 1237.9 1535.45 1233.35 1535.45 1227.74C1535.45 1222.13 1540 1217.59 1545.62 1217.59C1551.23 1217.59 1555.78 1222.13 1555.78 1227.74Z" fill="#7B2CBF"/>
<path d="M1551.72 1227.74C1551.72 1231.11 1548.99 1233.84 1545.62 1233.84C1542.26 1233.84 1539.52 1231.11 1539.52 1227.74C1539.52 1224.38 1542.26 1221.65 1545.62 1221.65C1548.99 1221.65 1551.72 1224.38 1551.72 1227.74Z" fill="black"/>
<path d="M1490.72 1564.9C1490.72 1570.5 1486.17 1575.05 1480.55 1575.05C1474.94 1575.05 1470.39 1570.5 1470.39 1564.9C1470.39 1559.29 1474.94 1554.74 1480.55 1554.74C1486.17 1554.74 1490.72 1559.29 1490.72 1564.9Z" fill="#7B2CBF"/>
<path d="M1486.66 1564.89C1486.66 1568.26 1483.93 1570.99 1480.56 1570.99C1477.19 1570.99 1474.46 1568.26 1474.46 1564.89C1474.46 1561.53 1477.19 1558.8 1480.56 1558.8C1483.93 1558.8 1486.66 1561.53 1486.66 1564.89Z" fill="black"/>
<path d="M1169.46 902.778C1169.46 908.386 1164.91 912.933 1159.3 912.933C1153.68 912.933 1149.13 908.386 1149.13 902.778C1149.13 897.169 1153.68 892.623 1159.3 892.623C1164.91 892.623 1169.46 897.169 1169.46 902.778Z" fill="#7B2CBF"/>
<path d="M1165.4 902.778C1165.4 906.143 1162.67 908.871 1159.3 908.871C1155.93 908.871 1153.2 906.143 1153.2 902.778C1153.2 899.412 1155.93 896.684 1159.3 896.684C1162.67 896.684 1165.4 899.412 1165.4 902.778Z" fill="black"/>
<path d="M1480.57 1730.8V1832.35M870.558 1741.6H1559.86M762.793 772.792L764.826 772.828L872.169 880.436H1079.99V1556.77H1159.29M1340.26 1181.03L1559.86 957.616V774.823H1858.76V1843.15L1753.03 1741.6H1559.86V1339.45L1399.23 1499.9V1648.17L1303.66 1560.5L1299.59 1556.77H1159.29M1159.29 1556.77L1159.29 1418.66L1303.66 1560.5M872.164 1132.28L872.164 1061.2V880.437L1317.89 1327.26L1655.42 986.051V1617.7M872.164 1061.2H764.822V772.829L1321.96 774.226V981.989L1151.16 1156.66M1179.63 1319.14L1317.89 1459.28L1543.59 1229.77M1484.63 774.634L1559.86 774.822M1858.76 774.823L1753.35 878.125V1061.2M1559.86 880.436H1751L1753.36 878.125M1559.86 1847.21V1741.6M1399.22 1648.17L974.255 1650.2V1138.38M872.164 1573.02V1743.63M872.164 1573.02H764.822M872.164 1573.02V1205.4M1159.29 773.818V894.653M1240.63 774.022V949.492L1090.16 1098.97M1321.95 774.226L1403.28 774.43M1403.29 894.654V774.43L1484.63 774.634V927.15L1202.41 1211.49M1753.35 1061.2L1858.76 1061.2M1753.35 1061.2V1132.28M1753.35 1573.02V1741.91M1753.35 1573.02V1499.9M1753.35 1573.02H1858.76M1753.35 1132.28H1858.76M1753.35 1132.28V1280.55M1753.35 1280.55L1858.76 1280.55M1753.35 1280.55V1353.67M1753.03 1205.4H1858.76M1753.35 1353.67H1858.76M1753.35 1353.67V1426.78M1753.35 1426.78L1858.76 1426.79M1753.35 1426.78V1499.9M1753.35 1499.9H1858.76M1480.08 1743.63V1570.99M1400.25 1743.62V1847.22M1319.91 1745.66V1847.21M1241.64 1743.62V1847.22M1158.27 1743.62V1847.22M1078.97 1743.62V1847.22M872.164 1132.28H764.822M872.164 1132.28V1205.4M872.164 1205.4L764.822 1205.4M764.822 1280.55H872.164M764.822 1353.67H872.164M764.822 1426.79H872.164M764.822 1499.9H872.164M1399.22 1181.03L1645.25 927.15H1706.25L1704.22 1207.43M886.826 1353.67H903.093V1327.26L913.26 1349.61L923.426 1205.4L931.56 1451.16L941.726 1353.67H957.993M992.556 1353.67H1014.92L1023.06 1205.4L1033.22 1451.16L1045.42 1353.67H1063.72M1187.76 1386.16L1317.89 1516.15L1555.79 1280.55M1248.76 1327.26L1317.89 1394.29L1492.76 1217.59M960.023 1696.91H1191.82L1201.99 1674.57L1214.19 1715.19L1228.42 1696.91H1433.79M1287.39 1607.55H1033.23V1485.68M1582.23 1353.67H1594.43L1596.46 1323.2L1608.66 1447.1L1620.86 1353.67H1643.23M817.688 884.498V1024.64M872.164 825.598H1047.45M1596.45 825.598H1753.34M1807.93 880.437V1022.61M1807.93 1607.55V1741.6M1596.45 1794.4H1742.85M872.164 1794.4H1045.42M817.688 1607.55V1721.29M1671.69 1349.61H1685.93L1687.96 1321.17L1694.06 1343.51L1704.23 1195.25L1712.36 1445.06L1724.56 1349.61H1738.79M764.947 1061.2V1845.18M762.793 1843.02H1860.79M3010.84 2591.09L2444.97 2025.22L2534.42 1935.77L2463.88 1865.23L2374.43 1954.68L2257.39 1837.64C2308.73 1746.55 2347.14 1650.72 2370.34 1551.29H2598.92V1052.42H2370.34C2343.15 934.886 2297.45 824.137 2234.1 722.417L2395.38 561.082L2042.68 208.381L1881.35 369.666C1779.58 306.259 1668.83 260.563 1551.29 233.374V4.7914H1052.42V233.374C934.888 260.563 824.139 306.259 722.419 369.616L561.034 208.331L208.332 561.032L369.617 722.367C306.261 824.137 260.564 934.886 233.376 1052.42H4.79297V1551.29H233.376C260.564 1668.83 306.261 1779.57 369.617 1881.29L208.332 2042.68L561.034 2395.38L722.369 2234.1C824.089 2297.5 934.838 2343.2 1052.37 2370.34V2598.92H1551.24V2370.34C1650.67 2347.09 1746.45 2308.73 1837.59 2257.39L1954.63 2374.43L1865.18 2463.88L1935.72 2534.42L2025.17 2444.97L2591.04 3010.84C2647.16 3066.91 2721.69 3097.79 2800.96 3097.79C2964.64 3097.79 3097.79 2964.64 3097.79 2800.96C3097.79 2721.69 3066.91 2647.16 3010.84 2591.09ZM1491.98 2280.94L1451.52 2288.72V2499.15H1152.2V2288.77L1111.74 2280.99C978.689 2255.3 854.869 2204.16 743.621 2128.93L709.498 2105.84L560.984 2254.3L349.413 2042.68L497.877 1894.17L474.779 1860.04C399.55 1748.84 348.415 1624.97 322.723 1491.93L314.941 1451.52H104.567V1152.19H314.941L322.723 1111.74C348.415 978.687 399.55 854.868 474.779 743.619L497.877 709.497L349.413 561.032L561.034 349.411L709.548 497.875L743.671 474.778C854.869 399.548 978.739 348.414 1111.79 322.722L1152.2 314.939V104.566H1451.52V314.939L1491.98 322.722C1625.03 348.414 1748.85 399.548 1860.09 474.778L1894.22 497.875L2042.73 349.411L2254.35 561.032L2105.89 709.546L2128.99 743.669C2204.22 854.868 2255.35 978.737 2281.04 1111.79L2288.77 1152.19H2499.15V1451.52H2288.72L2280.94 1491.98C2262.83 1586.26 2229.71 1677.41 2183.91 1764.16L2110.18 1690.43C2167 1572.64 2199.83 1441.14 2199.83 1301.86C2199.83 806.726 1796.99 403.888 1301.86 403.888C806.728 403.888 403.89 806.726 403.89 1301.86C403.89 1796.99 806.728 2199.82 1301.86 2199.82C1441.14 2199.82 1572.64 2167 1690.38 2110.18L1764.11 2183.91C1677.36 2229.71 1586.26 2262.83 1491.98 2280.94ZM2100.05 1301.86C2100.05 1741.96 1741.96 2100.05 1301.86 2100.05C861.753 2100.05 503.664 1741.96 503.664 1301.86C503.664 861.752 861.753 503.662 1301.86 503.662C1741.96 503.662 2100.05 861.752 2100.05 1301.86ZM1781.17 2059.84C1893.42 1988.6 1988.6 1893.42 2059.84 1781.17L2303.89 2025.22L2025.22 2303.89L1781.17 2059.84ZM2800.96 2998.02C2748.33 2998.02 2698.85 2977.51 2661.63 2940.3L2095.76 2374.43L2374.43 2095.76L2940.3 2661.63C2977.52 2698.84 2998.02 2748.33 2998.02 2800.96C2998.02 2909.62 2909.62 2998.02 2800.96 2998.02ZM1413.45 902.778C1413.45 908.386 1408.9 912.933 1403.28 912.933C1397.67 912.933 1393.12 908.386 1393.12 902.778C1393.12 897.169 1397.67 892.623 1403.28 892.623C1408.9 892.623 1413.45 897.169 1413.45 902.778ZM1409.39 902.778C1409.39 906.143 1406.66 908.871 1403.29 908.871C1399.92 908.871 1397.19 906.143 1397.19 902.778C1397.19 899.412 1399.92 896.684 1403.29 896.684C1406.66 896.684 1409.39 899.412 1409.39 902.778ZM1348.41 1183.06C1348.41 1188.67 1343.86 1193.22 1338.24 1193.22C1332.63 1193.22 1328.07 1188.67 1328.07 1183.06C1328.07 1177.45 1332.63 1172.91 1338.24 1172.91C1343.86 1172.91 1348.41 1177.45 1348.41 1183.06ZM1344.33 1183.06C1344.33 1186.43 1341.6 1189.15 1338.23 1189.15C1334.86 1189.15 1332.13 1186.43 1332.13 1183.06C1332.13 1179.7 1334.86 1176.97 1338.23 1176.97C1341.6 1176.97 1344.33 1179.7 1344.33 1183.06ZM1189.79 1317.11C1189.79 1322.72 1185.24 1327.26 1179.63 1327.26C1174.01 1327.26 1169.46 1322.72 1169.46 1317.11C1169.46 1311.5 1174.01 1306.95 1179.63 1306.95C1185.24 1306.95 1189.79 1311.5 1189.79 1317.11ZM1185.73 1317.11C1185.73 1320.47 1183 1323.2 1179.63 1323.2C1176.26 1323.2 1173.53 1320.47 1173.53 1317.11C1173.53 1313.74 1176.26 1311.02 1179.63 1311.02C1183 1311.02 1185.73 1313.74 1185.73 1317.11ZM986.462 1132.28C986.462 1139.02 981 1144.47 974.262 1144.47C967.525 1144.47 962.062 1139.02 962.062 1132.28C962.062 1125.55 967.525 1120.1 974.262 1120.1C981 1120.1 986.462 1125.55 986.462 1132.28ZM981.583 1132.28C981.583 1136.32 978.306 1139.6 974.263 1139.6C970.22 1139.6 966.943 1136.32 966.943 1132.28C966.943 1128.25 970.22 1124.97 974.263 1124.97C978.306 1124.97 981.583 1128.25 981.583 1132.28ZM1665.59 1625.83C1665.59 1631.44 1661.04 1635.98 1655.42 1635.98C1649.81 1635.98 1645.25 1631.44 1645.25 1625.83C1645.25 1620.22 1649.81 1615.67 1655.42 1615.67C1661.04 1615.67 1665.59 1620.22 1665.59 1625.83ZM1661.51 1625.83C1661.51 1629.19 1658.78 1631.92 1655.41 1631.92C1652.04 1631.92 1649.31 1629.19 1649.31 1625.83C1649.31 1622.46 1652.04 1619.73 1655.41 1619.73C1658.78 1619.73 1661.51 1622.46 1661.51 1625.83ZM1555.78 1227.74C1555.78 1233.35 1551.23 1237.9 1545.62 1237.9C1540 1237.9 1535.45 1233.35 1535.45 1227.74C1535.45 1222.13 1540 1217.59 1545.62 1217.59C1551.23 1217.59 1555.78 1222.13 1555.78 1227.74ZM1551.72 1227.74C1551.72 1231.11 1548.99 1233.84 1545.62 1233.84C1542.26 1233.84 1539.52 1231.11 1539.52 1227.74C1539.52 1224.38 1542.26 1221.65 1545.62 1221.65C1548.99 1221.65 1551.72 1224.38 1551.72 1227.74ZM1490.72 1564.9C1490.72 1570.5 1486.17 1575.05 1480.55 1575.05C1474.94 1575.05 1470.39 1570.5 1470.39 1564.9C1470.39 1559.29 1474.94 1554.74 1480.55 1554.74C1486.17 1554.74 1490.72 1559.29 1490.72 1564.9ZM1486.66 1564.89C1486.66 1568.26 1483.93 1570.99 1480.56 1570.99C1477.19 1570.99 1474.46 1568.26 1474.46 1564.89C1474.46 1561.53 1477.19 1558.8 1480.56 1558.8C1483.93 1558.8 1486.66 1561.53 1486.66 1564.89ZM1169.46 902.778C1169.46 908.386 1164.91 912.933 1159.3 912.933C1153.68 912.933 1149.13 908.386 1149.13 902.778C1149.13 897.169 1153.68 892.623 1159.3 892.623C1164.91 892.623 1169.46 897.169 1169.46 902.778ZM1165.4 902.778C1165.4 906.143 1162.67 908.871 1159.3 908.871C1155.93 908.871 1153.2 906.143 1153.2 902.778C1153.2 899.412 1155.93 896.684 1159.3 896.684C1162.67 896.684 1165.4 899.412 1165.4 902.778Z" stroke="#FF7A00" stroke-width="9.5828"/>
</svg>
