<svg width="34662" height="34124" viewBox="0 0 34662 34124" fill="none" xmlns="http://www.w3.org/2000/svg">
<path d="M22631.9 30241.3V33431" stroke="#FF7A00" stroke-width="300.994"/>
<path d="M3471.64 30580.4H9986.04H25122.4" stroke="#FF7A00" stroke-width="300.994"/>
<path d="M86.7831 150.473L150.65 151.624L3522.26 3531.58H10050V24775.1H12540.8H16947.6L17075.3 24892.3L20077 27645.9V22988.9L25122.5 17949.1V30580.4H31189.8L31200.1 30590.2L34510.9 33770.1V25285.5V22988.9V20692.3V18395.7V16099.1V13738.7V11442.1V9209.28V214.267H25122.5V3531.58V5955.77L18224.9 12973.2" stroke="url(#paint0_linear_267_480)" stroke-width="300.994"/>
<path d="M28124.1 26689V6848.91L17522.2 17566.4L13894.9 13930.1L10369.2 10395.6L3522.1 3531.59V9209.3H150.497V151.641L12540.6 182.722L12636.4 182.962L15095.3 189.13L17650 195.539V6721.32L12285.2 12207.6" stroke="url(#paint1_linear_267_480)" stroke-width="300.994"/>
<path d="M13179.4 17311.2L17522.3 21713L24611.5 14504.2" stroke="#FF7A00" stroke-width="300.994"/>
<path d="M22759.6 208.332L25122.7 214.26" stroke="#FF7A00" stroke-width="300.994"/>
<path d="M34510.8 214.27L31200 3458.97" stroke="#7B2CBF" stroke-width="300.994"/>
<path d="M25122.6 3531.58H31126L31200.1 3458.97" stroke="#FF7A00" stroke-width="300.994"/>
<path d="M25122.6 33897.7V30580.4" stroke="#FF7A00" stroke-width="300.994"/>
<path d="M20076.9 27645.9L6728.79 27709.7V11633.5" stroke="url(#paint2_linear_267_480)" stroke-width="300.994"/>
<path d="M3522.13 25285.5V30644.2" stroke="#7B2CBF" stroke-width="300.994"/>
<path d="M12540.8 182.699V3978.13" stroke="#FF7A00" stroke-width="300.994"/>
<path d="M15095.4 189.129V5700.6L10369.3 10395.6" stroke="#FF7A00" stroke-width="300.994"/>
<path d="M17649.8 195.527L20204.5 201.936" stroke="#FF7A00" stroke-width="300.994"/>
<path d="M20204.8 3978.13V201.926L22759.5 208.334V4998.84L13895.1 13930.1" stroke="#FF7A00" stroke-width="300.994"/>
<path d="M31200 3458.97V9209.28" stroke="#FF7A00" stroke-width="300.994"/>
<path d="M31200 25285.5V30590.2" stroke="#FF7A00" stroke-width="300.994"/>
<path d="M34510.8 9209.29H31200V11442.1H34510.8" stroke="#FF7A00" stroke-width="300.994"/>
<path d="M31200 11442.1V16099.1" stroke="#FF7A00" stroke-width="300.994"/>
<path d="M31189.9 13738.7H34510.9" stroke="#FF7A00" stroke-width="300.994"/>
<path d="M34510.8 16099.1H31200V18395.7H34510.8" stroke="#FF7A00" stroke-width="300.994"/>
<path d="M31200 18395.7V20692.3" stroke="#FF7A00" stroke-width="300.994"/>
<path d="M34510.8 20692.3H31200V22988.9H34510.8" stroke="#FF7A00" stroke-width="300.994"/>
<path d="M31200 22988.9V25285.5" stroke="#FF7A00" stroke-width="300.994"/>
<path d="M31200 25285.5H34510.8" stroke="#FF7A00" stroke-width="300.994"/>
<path d="M22616.5 30644.2V25221.7" stroke="#FF7A00" stroke-width="300.994"/>
<path d="M20109.1 30643.9V33898" stroke="#FF7A00" stroke-width="300.994"/>
<path d="M17585.9 30708V33897.7" stroke="#FF7A00" stroke-width="300.994"/>
<path d="M15127.4 30643.9V33898" stroke="#FF7A00" stroke-width="300.994"/>
<path d="M12508.7 30643.9V33898" stroke="#FF7A00" stroke-width="300.994"/>
<path d="M10017.9 30643.9V33898" stroke="#FF7A00" stroke-width="300.994"/>
<path d="M12540.8 24775.1V20437.1L17075.3 24892.3" stroke="#FF7A00" stroke-width="300.994"/>
<path d="M3522.13 9209.29V11442.1" stroke="#FF7A00" stroke-width="300.994"/>
<path d="M150.497 11442.1H3522.1" stroke="#FF7A00" stroke-width="300.994"/>
<path d="M3522.13 11442.1V13738.7" stroke="#FF7A00" stroke-width="300.994"/>
<path d="M150.497 13738.7H3522.1" stroke="#FF7A00" stroke-width="300.994"/>
<path d="M3522.13 13738.7V16099.1" stroke="#FF7A00" stroke-width="300.994"/>
<path d="M150.497 16099.1H3522.1" stroke="#FF7A00" stroke-width="300.994"/>
<path d="M3522.13 16099.1V18395.7" stroke="#FF7A00" stroke-width="300.994"/>
<path d="M150.497 18395.7H3522.1" stroke="#FF7A00" stroke-width="300.994"/>
<path d="M3522.13 18395.7V20692.3" stroke="#FF7A00" stroke-width="300.994"/>
<path d="M150.497 20692.3H3522.1" stroke="#FF7A00" stroke-width="300.994"/>
<path d="M3522.13 20692.3V22988.9" stroke="#FF7A00" stroke-width="300.994"/>
<path d="M150.497 22988.9H3522.1" stroke="#FF7A00" stroke-width="300.994"/>
<path d="M3522.13 22988.9V25285.5" stroke="#FF7A00" stroke-width="300.994"/>
<path d="M150.497 25285.5H3522.1" stroke="#FF7A00" stroke-width="300.994"/>
<path d="M20076.9 12973.1L27804.8 4998.84H29720.8L29656.9 13802.5" stroke="url(#paint3_linear_267_480)" stroke-width="300.994"/>
<path d="M3982.69 18395.7H4493.63V17566.3L4812.96 18268.1L5132.29 13738.7L5387.76 21457.8L5707.09 18395.7H6218.02" stroke="url(#paint4_linear_267_480)" stroke-width="60"/>
<path d="M7303.61 18395.7H8006.14L8261.61 13738.7L8580.94 21457.8L8964.14 18395.7H9538.94" stroke="url(#paint5_linear_267_480)" stroke-width="60"/>
<path d="M13434.8 19416.4L17522.3 23499.3L24994.7 16099.1" stroke="#7B2CBF" stroke-width="300.994"/>
<path d="M15350.8 17566.3L17522.3 19671.6L23014.8 14121.4" stroke="#7B2CBF" stroke-width="300.994"/>
<path d="M6281.71 29176.9H13562.5L13881.8 28475.2L14265 29751.1L14712.1 29176.9H21162.6" stroke="url(#paint6_linear_267_480)" stroke-width="300.994"/>
<path d="M16564.4 26370H8581.08V22542.3" stroke="#7B2CBF" stroke-width="300.994"/>
<path d="M25825.1 18395.7H26208.3L26272.2 17438.8L26655.4 21330.2L27038.6 18395.7H27741.1" stroke="url(#paint7_linear_267_480)" stroke-width="60"/>
<path d="M1811.04 3659.16V8060.97" stroke="#6CD3D3" stroke-width="300.994"/>
<path d="M3522.13 1809.13H9027.98" stroke="#6CD3D3" stroke-width="300.994"/>
<path d="M26271.8 1809.13H31199.8" stroke="#6CD3D3" stroke-width="300.994"/>
<path d="M32914.2 3531.58V7997.19" stroke="#6CD3D3" stroke-width="300.994"/>
<path d="M32914.2 26370V30580.4" stroke="#6CD3D3" stroke-width="300.994"/>
<path d="M26271.8 32239.1H30870.2" stroke="#6CD3D3" stroke-width="300.994"/>
<path d="M3522.13 32239.1H8964.12" stroke="#6CD3D3" stroke-width="300.994"/>
<path d="M1811.04 26370V29942.5" stroke="#6CD3D3" stroke-width="300.994"/>
<path d="M28635.2 18268.1H29082.3L29146.1 17375L29337.7 18076.7L29657.1 13419.7L29912.5 21266.4L30295.7 18268.1H30742.8" stroke="url(#paint8_linear_267_480)" stroke-width="60"/>
<ellipse cx="20204.5" cy="4233.31" rx="319.333" ry="318.972" fill="#7B2CBF"/>
<ellipse cx="20204.7" cy="4233.31" rx="191.6" ry="191.383" fill="black"/>
<ellipse cx="18161.4" cy="13036.9" rx="319.333" ry="318.972" fill="#7B2CBF"/>
<ellipse cx="18161.2" cy="13037" rx="191.6" ry="191.383" fill="black"/>
<ellipse cx="13179.5" cy="17247.4" rx="319.333" ry="318.972" fill="#7B2CBF"/>
<ellipse cx="13179.4" cy="17247.4" rx="191.6" ry="191.383" fill="black"/>
<ellipse cx="6728.94" cy="11442.1" rx="383.2" ry="382.767" fill="#7B2CBF"/>
<ellipse cx="6729.09" cy="11442.1" rx="229.92" ry="229.66" fill="black"/>
<ellipse cx="28124.1" cy="26944.2" rx="319.333" ry="318.972" fill="#7B2CBF"/>
<ellipse cx="28123.8" cy="26944.2" rx="191.6" ry="191.383" fill="black"/>
<ellipse cx="24675.2" cy="14440.4" rx="319.333" ry="318.972" fill="#7B2CBF"/>
<ellipse cx="24675.5" cy="14440.4" rx="191.6" ry="191.383" fill="black"/>
<ellipse cx="22631.6" cy="25030.3" rx="319.333" ry="318.972" fill="#7B2CBF"/>
<ellipse cx="22631.7" cy="25030.3" rx="191.6" ry="191.383" fill="black"/>
<ellipse cx="12540.9" cy="4233.31" rx="319.333" ry="318.972" fill="#7B2CBF"/>
<ellipse cx="12540.9" cy="4233.31" rx="191.6" ry="191.383" fill="black"/>
<path d="M154.422 9209.29L154.422 33833.9" stroke="#7B2CBF" stroke-width="300.994"/>
<path d="M86.7831 33766.3H34574.8" stroke="#7B2CBF" stroke-width="300.994"/>
<defs>
<linearGradient id="paint0_linear_267_480" x1="17298.8" y1="150.473" x2="17298.8" y2="33770.1" gradientUnits="userSpaceOnUse">
<stop stop-color="#7B2CBF"/>
<stop offset="1" stop-color="#FF7A00"/>
</linearGradient>
<linearGradient id="paint1_linear_267_480" x1="14137.3" y1="151.641" x2="14137.3" y2="26689" gradientUnits="userSpaceOnUse">
<stop stop-color="#7B2CBF"/>
<stop offset="1" stop-color="#FF7A00"/>
</linearGradient>
<linearGradient id="paint2_linear_267_480" x1="13402.9" y1="11633.5" x2="13402.9" y2="27709.7" gradientUnits="userSpaceOnUse">
<stop stop-color="#7B2CBF"/>
<stop offset="1" stop-color="#FF7A00"/>
</linearGradient>
<linearGradient id="paint3_linear_267_480" x1="24898.9" y1="4998.84" x2="24898.9" y2="13802.5" gradientUnits="userSpaceOnUse">
<stop stop-color="#FF7A00"/>
<stop offset="1" stop-color="#347B6D"/>
</linearGradient>
<linearGradient id="paint4_linear_267_480" x1="5100.36" y1="13738.7" x2="5100.36" y2="21457.8" gradientUnits="userSpaceOnUse">
<stop stop-color="#347B6D"/>
<stop offset="1" stop-color="#5FE1C7"/>
</linearGradient>
<linearGradient id="paint5_linear_267_480" x1="8421.28" y1="13738.7" x2="8421.28" y2="21457.8" gradientUnits="userSpaceOnUse">
<stop stop-color="#347B6D"/>
<stop offset="1" stop-color="#5FE1C7"/>
</linearGradient>
<linearGradient id="paint6_linear_267_480" x1="6281.71" y1="29113.2" x2="21162.6" y2="29113.2" gradientUnits="userSpaceOnUse">
<stop stop-color="#347B6D"/>
<stop offset="1" stop-color="#5FE1C7"/>
</linearGradient>
<linearGradient id="paint7_linear_267_480" x1="26783.1" y1="17438.8" x2="26783.1" y2="21330.2" gradientUnits="userSpaceOnUse">
<stop stop-color="#347B6D"/>
<stop offset="1" stop-color="#5FE1C7"/>
</linearGradient>
<linearGradient id="paint8_linear_267_480" x1="29689" y1="13419.7" x2="29689" y2="21266.4" gradientUnits="userSpaceOnUse">
<stop stop-color="#347B6D"/>
<stop offset="1" stop-color="#5FE1C7"/>
</linearGradient>
</defs>
</svg>
