<svg width="2370" height="2333" viewBox="0 0 2370 2333" fill="none" xmlns="http://www.w3.org/2000/svg">
<path d="M1547.13 2067.31V2285.36M237.326 2090.49H1717.38M5.93359 10.2864L10.2995 10.3651L240.784 241.42H687.022V1693.64H1158.54L1372.48 1889.88V1571.53L1717.39 1227.01V2090.49H2132.15L2359.18 2308.54V14.6474H1717.39V407.139L1245.86 886.851M1922.58 1824.47V468.194L1197.83 1200.85L240.774 241.421V629.552H10.2893V10.3661L1206.56 13.367V459.472L839.82 834.52M900.954 1183.4L1197.84 1484.31L1682.46 991.516M1555.86 14.2417L1717.4 14.6469M2359.18 14.6477L2132.85 236.457V629.551M1717.39 241.42H2127.79L2132.86 236.457M1717.39 2317.26V2090.49M1372.47 1889.88L459.984 1894.25V795.27M240.775 2094.85V1571.53M857.291 12.4893V271.947M1031.93 12.9289V389.696L708.851 710.648M1206.55 13.3662L1381.19 13.8043M1381.21 271.947V13.8039L1555.85 14.242V341.723L949.878 952.266M2132.85 629.551L2359.18 629.551M2132.85 629.551V782.187M2132.85 1728.53V2091.16M2132.85 1728.53V1571.53M2132.85 1728.53H2359.18M2132.85 782.187H2359.18M2132.85 782.187V1100.54M2132.16 939.183H2359.18M2359.18 1100.54H2132.85V1257.54H2359.18M2132.85 1257.54V1414.53M2359.18 1414.54H2132.85V1571.53H2359.18M1546.08 2094.85V1724.17M1374.67 2094.83V2317.29M1202.18 2099.21V2317.26M1034.12 2094.83V2317.29M855.103 2094.83V2317.29M684.83 2094.83V2317.29M857.291 1693.64V1397.09L1167.27 1701.65M240.775 629.551V1100.54M10.2893 782.186H240.774M10.2893 939.183H240.774M10.2893 1100.54H240.774M240.775 1100.54V1257.54M10.2893 1257.54H240.774M240.775 1257.54V1414.53M10.2893 1414.54H240.774M240.775 1414.54V1571.53M10.2893 1571.53H240.774M10.2893 1728.53H240.774M1372.47 886.85L1900.75 341.723H2031.73L2027.36 943.543M272.258 1257.54H307.185V1200.84L329.015 1248.81L350.845 939.183L368.309 1466.87L390.138 1257.54H425.066M499.279 1257.54H547.305L564.768 939.183L586.598 1466.87L612.794 1257.54H652.087M918.414 1327.31L1197.84 1606.42L1708.65 1100.54M1049.39 1200.84L1197.83 1344.76L1573.3 965.349M429.424 1994.55H927.143L948.972 1946.58L975.168 2033.8L1005.73 1994.55H1446.69M1132.35 1802.66H586.606V1541M1765.42 1257.54H1791.61L1795.98 1192.12L1822.18 1458.15L1848.37 1257.54H1896.4M123.805 250.142V551.052M240.775 123.673H617.158M1795.96 123.673H2132.83M2250.03 241.421V546.692M2250.03 1802.66V2090.49M1795.96 2203.88H2110.3M240.775 2203.88H612.792M123.805 1802.66V2046.88M1957.52 1248.82H1988.08L1992.44 1187.76L2005.54 1235.73L2027.37 917.379L2044.84 1453.78L2071.03 1248.82H2101.59M10.5577 629.551V2312.9M5.93359 2308.28H2363.55M1403.02 289.391C1403.02 301.434 1393.25 311.196 1381.19 311.196C1369.14 311.196 1359.36 301.434 1359.36 289.391C1359.36 277.349 1369.14 267.586 1381.19 267.586C1393.25 267.586 1403.02 277.349 1403.02 289.391ZM1394.3 289.391C1394.3 296.616 1388.44 302.474 1381.21 302.474C1373.97 302.474 1368.11 296.616 1368.11 289.391C1368.11 282.165 1373.97 276.308 1381.21 276.308C1388.44 276.308 1394.3 282.165 1394.3 289.391ZM1263.35 891.211C1263.35 903.254 1253.58 913.016 1241.52 913.016C1229.47 913.016 1219.69 903.254 1219.69 891.211C1219.69 879.168 1229.47 869.406 1241.52 869.406C1253.58 869.406 1263.35 879.168 1263.35 891.211ZM1254.6 891.212C1254.6 898.437 1248.74 904.295 1241.51 904.295C1234.27 904.295 1228.41 898.437 1228.41 891.212C1228.41 883.986 1234.27 878.129 1241.51 878.129C1248.74 878.129 1254.6 883.986 1254.6 891.212ZM922.783 1179.04C922.783 1191.08 913.009 1200.84 900.953 1200.84C888.897 1200.84 879.123 1191.08 879.123 1179.04C879.123 1167 888.897 1157.23 900.953 1157.23C913.009 1157.23 922.783 1167 922.783 1179.04ZM914.045 1179.04C914.045 1186.26 908.181 1192.12 900.947 1192.12C893.714 1192.12 887.85 1186.26 887.85 1179.04C887.85 1171.81 893.714 1165.96 900.947 1165.96C908.181 1165.96 914.045 1171.81 914.045 1179.04ZM486.191 782.187C486.191 796.638 474.463 808.353 459.996 808.353C445.528 808.353 433.8 796.638 433.8 782.187C433.8 767.735 445.528 756.02 459.996 756.02C474.463 756.02 486.191 767.735 486.191 782.187ZM475.719 782.186C475.719 790.857 468.683 797.886 460.002 797.886C451.322 797.886 444.285 790.857 444.285 782.186C444.285 773.516 451.322 766.487 460.002 766.487C468.683 766.487 475.719 773.516 475.719 782.186ZM1944.41 1841.91C1944.41 1853.96 1934.63 1863.72 1922.58 1863.72C1910.52 1863.72 1900.75 1853.96 1900.75 1841.91C1900.75 1829.87 1910.52 1820.11 1922.58 1820.11C1934.63 1820.11 1944.41 1829.87 1944.41 1841.91ZM1935.66 1841.92C1935.66 1849.14 1929.79 1855 1922.56 1855C1915.32 1855 1909.46 1849.14 1909.46 1841.92C1909.46 1834.69 1915.32 1828.83 1922.56 1828.83C1929.79 1828.83 1935.66 1834.69 1935.66 1841.92ZM1708.64 987.154C1708.64 999.196 1698.86 1008.96 1686.81 1008.96C1674.75 1008.96 1664.98 999.196 1664.98 987.154C1664.98 975.111 1674.75 965.349 1686.81 965.349C1698.86 965.349 1708.64 975.111 1708.64 987.154ZM1699.93 987.155C1699.93 994.381 1694.06 1000.24 1686.83 1000.24C1679.6 1000.24 1673.73 994.381 1673.73 987.155C1673.73 979.93 1679.6 974.072 1686.83 974.072C1694.06 974.072 1699.93 979.93 1699.93 987.155ZM1568.93 1711.08C1568.93 1723.13 1559.16 1732.89 1547.1 1732.89C1535.05 1732.89 1525.27 1723.13 1525.27 1711.08C1525.27 1699.04 1535.05 1689.28 1547.1 1689.28C1559.16 1689.28 1568.93 1699.04 1568.93 1711.08ZM1560.21 1711.08C1560.21 1718.31 1554.35 1724.16 1547.11 1724.16C1539.88 1724.16 1534.02 1718.31 1534.02 1711.08C1534.02 1703.86 1539.88 1698 1547.11 1698C1554.35 1698 1560.21 1703.86 1560.21 1711.08ZM879.133 289.391C879.133 301.434 869.359 311.196 857.303 311.196C845.247 311.196 835.473 301.434 835.473 289.391C835.473 277.349 845.247 267.586 857.303 267.586C869.359 267.586 879.133 277.349 879.133 289.391ZM870.399 289.391C870.399 296.616 864.535 302.474 857.301 302.474C850.068 302.474 844.203 296.616 844.203 289.391C844.203 282.165 850.068 276.308 857.301 276.308C864.535 276.308 870.399 282.165 870.399 289.391Z" stroke="#FF7A00" stroke-width="20.5761"/>
</svg>
