<svg width="10198" height="9996" viewBox="0 0 10198 9996" fill="none" xmlns="http://www.w3.org/2000/svg">
<path d="M6666.58 8913.75V9856.91" stroke="#FF7A00" stroke-width="32.551"/>
<path d="M1001.15 9014.02H2927.38H7403.01" stroke="#FF7A00" stroke-width="32.551"/>
<path d="M0.293457 16.2734L19.178 16.6139L1016.12 1016.02H2946.28V7297.47H3682.78H4985.81L5023.58 7332.11L5911.16 8146.31V6769.3L7403.04 5279.11V9014.02H9197.07L9200.09 9016.92L10179.1 9957.18V7448.37V6769.3V6090.22V5411.15V4732.07V4034.13V3355.06V2694.85V35.1366H7403.04V1016.02V1732.82L5363.5 3807.78" stroke="url(#paint0_linear_267_480)" stroke-width="32.551"/>
<path d="M8290.56 7863.37V1996.91L5155.73 5165.93L4083.18 4090.73L3040.66 3045.63L1016.07 1016.03V2694.85H19.1328V16.6191L3682.73 25.8094L3711.06 25.8805L4438.12 27.7044L5193.5 29.5993V1959.19L3607.2 3581.42" stroke="url(#paint1_linear_267_480)" stroke-width="32.551" stroke-linecap="round"/>
<path d="M3871.61 5090.48L5155.76 6392.04L7251.95 4260.5" stroke="#FF7A00" stroke-width="32.551"/>
<path d="M6704.35 33.3809L7403.08 35.1336" stroke="#FF7A00" stroke-width="32.551"/>
<path d="M10179.1 35.1367L9200.08 994.554" stroke="#7B2CBF" stroke-width="32.551"/>
<path d="M7403.06 1016.02H9178.21L9200.11 994.555" stroke="#FF7A00" stroke-width="32.551"/>
<path d="M7403.06 9994.91V9014.02" stroke="#FF7A00" stroke-width="32.551"/>
<path d="M5911.12 8146.31L1964.25 8165.18V3411.65" stroke="url(#paint2_linear_267_480)" stroke-width="32.551"/>
<path d="M1016.08 7448.37V9032.88" stroke="#7B2CBF" stroke-width="32.551"/>
<path d="M3682.77 25.8027V1148.06" stroke="#FF7A00" stroke-width="32.551"/>
<path d="M4438.16 27.7031V1657.38L3040.7 3045.63" stroke="#FF7A00" stroke-width="32.551"/>
<path d="M5193.47 29.5957L5948.85 31.4906" stroke="#FF7A00" stroke-width="32.551"/>
<path d="M5948.95 1148.06V31.4883L6704.33 33.3832V1449.88L4083.25 4090.72" stroke="#FF7A00" stroke-width="32.551"/>
<path d="M9200.08 994.555V2694.85" stroke="#FF7A00" stroke-width="32.551"/>
<path d="M9200.08 7448.37V9016.92" stroke="#FF7A00" stroke-width="32.551"/>
<path d="M10179.1 2694.85H9200.08V3355.06H10179.1" stroke="#FF7A00" stroke-width="32.551"/>
<path d="M9200.08 3355.06V4732.07" stroke="#FF7A00" stroke-width="32.551"/>
<path d="M9197.08 4034.13H10179.1" stroke="#FF7A00" stroke-width="32.551"/>
<path d="M10179.1 4732.08H9200.08V5411.16H10179.1" stroke="#FF7A00" stroke-width="32.551"/>
<path d="M9200.08 5411.15V6090.22" stroke="#FF7A00" stroke-width="32.551"/>
<path d="M10179.1 6090.23H9200.08V6769.31H10179.1" stroke="#FF7A00" stroke-width="32.551"/>
<path d="M9200.08 6769.3V7448.37" stroke="#FF7A00" stroke-width="32.551"/>
<path d="M9200.08 7448.37H10179.1" stroke="#FF7A00" stroke-width="32.551"/>
<path d="M6662.05 9032.88V7429.51" stroke="#FF7A00" stroke-width="32.551"/>
<path d="M5920.64 9032.79V9995" stroke="#FF7A00" stroke-width="32.551"/>
<path d="M5174.56 9051.74V9994.9" stroke="#FF7A00" stroke-width="32.551"/>
<path d="M4447.62 9032.79V9995" stroke="#FF7A00" stroke-width="32.551"/>
<path d="M3673.31 9032.79V9995" stroke="#FF7A00" stroke-width="32.551"/>
<path d="M2936.8 9032.79V9995" stroke="#FF7A00" stroke-width="32.551"/>
<path d="M3682.77 7297.47V6014.77L5023.58 7332.12" stroke="#FF7A00" stroke-width="32.551"/>
<path d="M1016.08 2694.85V3355.06" stroke="#FF7A00" stroke-width="32.551"/>
<path d="M19.1328 3355.06H1016.07" stroke="#FF7A00" stroke-width="32.551"/>
<path d="M1016.08 3355.06V4034.14" stroke="#FF7A00" stroke-width="32.551"/>
<path d="M19.1328 4034.13H1016.07" stroke="#FF7A00" stroke-width="32.551"/>
<path d="M1016.08 4034.13V4732.07" stroke="#FF7A00" stroke-width="32.551"/>
<path d="M19.1328 4732.08H1016.07" stroke="#FF7A00" stroke-width="32.551"/>
<path d="M1016.08 4732.08V5411.16" stroke="#FF7A00" stroke-width="32.551"/>
<path d="M19.1328 5411.15H1016.07" stroke="#FF7A00" stroke-width="32.551"/>
<path d="M1016.08 5411.15V6090.22" stroke="#FF7A00" stroke-width="32.551"/>
<path d="M19.1328 6090.23H1016.07" stroke="#FF7A00" stroke-width="32.551"/>
<path d="M1016.08 6090.23V6769.31" stroke="#FF7A00" stroke-width="32.551"/>
<path d="M19.1328 6769.3H1016.07" stroke="#FF7A00" stroke-width="32.551"/>
<path d="M1016.08 6769.3V7448.37" stroke="#FF7A00" stroke-width="32.551"/>
<path d="M19.1328 7448.37H1016.07" stroke="#FF7A00" stroke-width="32.551"/>
<path d="M5911.12 3807.77L8196.15 1449.87H8762.69L8743.8 4053" stroke="url(#paint3_linear_267_480)" stroke-width="32.551"/>
<path d="M1152.26 5411.15H1303.34V5165.93L1397.76 5373.42L1492.19 4034.13L1567.72 6316.58L1662.15 5411.15H1813.22" stroke="url(#paint4_linear_267_480)" stroke-width="32.551"/>
<path d="M2134.22 5411.15H2341.95L2417.49 4034.13L2511.91 6316.58L2625.22 5411.15H2795.18" stroke="url(#paint5_linear_267_480)" stroke-width="32.551"/>
<path d="M3947.14 5712.97L5155.75 6920.21L7365.24 4732.08" stroke="#7B2CBF" stroke-width="32.551"/>
<path d="M4513.67 5165.93L5155.74 5788.41L6779.81 4147.31" stroke="#7B2CBF" stroke-width="32.551"/>
<path d="M1832.06 8599.03H3984.89L4079.32 8391.54L4192.62 8768.8L4324.82 8599.03H6232.15" stroke="url(#paint6_linear_267_480)" stroke-width="32.551"/>
<path d="M4872.52 7769.04H2511.95V6637.25" stroke="#7B2CBF" stroke-width="32.551"/>
<path d="M7610.79 5411.15H7724.1L7742.98 5128.21L7856.29 6278.86L7969.6 5411.15H8177.33" stroke="url(#paint7_linear_267_480)" stroke-width="32.551"/>
<path d="M510.134 1053.75V2355.31" stroke="#6CD3D3" stroke-width="32.551"/>
<path d="M1016.08 506.717H2644.09" stroke="#6CD3D3" stroke-width="32.551"/>
<path d="M7742.88 506.717H9200.01" stroke="#6CD3D3" stroke-width="32.551"/>
<path d="M9706.94 1016.03V2336.45" stroke="#6CD3D3" stroke-width="32.551"/>
<path d="M9706.94 7769.05V9014.02" stroke="#6CD3D3" stroke-width="32.551"/>
<path d="M7742.88 9504.46H9102.56" stroke="#6CD3D3" stroke-width="32.551"/>
<path d="M1016.08 9504.46H2625.21" stroke="#6CD3D3" stroke-width="32.551"/>
<path d="M510.134 7769.05V8825.39" stroke="#6CD3D3" stroke-width="32.551"/>
<path d="M8441.69 5373.43H8573.88L8592.77 5109.34L8649.42 5316.84L8743.85 3939.82L8819.38 6260L8932.69 5373.43H9064.88" stroke="url(#paint8_linear_267_480)" stroke-width="32.551"/>
<ellipse cx="5948.86" cy="1223.52" rx="94.4227" ry="94.316" fill="#7B2CBF"/>
<ellipse cx="5948.91" cy="1223.52" rx="56.6536" ry="56.5896" fill="black"/>
<ellipse cx="5344.73" cy="3826.64" rx="94.4227" ry="94.316" fill="#7B2CBF"/>
<ellipse cx="5344.66" cy="3826.64" rx="56.6536" ry="56.5896" fill="black"/>
<ellipse cx="3871.63" cy="5071.61" rx="94.4227" ry="94.316" fill="#7B2CBF"/>
<ellipse cx="3871.61" cy="5071.61" rx="56.6536" ry="56.5896" fill="black"/>
<ellipse cx="1964.3" cy="3355.06" rx="113.307" ry="113.179" fill="#7B2CBF"/>
<ellipse cx="1964.34" cy="3355.06" rx="67.9844" ry="67.9075" fill="black"/>
<ellipse cx="8290.57" cy="7938.82" rx="94.4227" ry="94.316" fill="#7B2CBF"/>
<ellipse cx="8290.49" cy="7938.83" rx="56.6536" ry="56.5896" fill="black"/>
<ellipse cx="7270.77" cy="4241.63" rx="94.4227" ry="94.316" fill="#7B2CBF"/>
<ellipse cx="7270.85" cy="4241.63" rx="56.6536" ry="56.5896" fill="black"/>
<ellipse cx="6666.5" cy="7372.92" rx="94.4227" ry="94.316" fill="#7B2CBF"/>
<ellipse cx="6666.55" cy="7372.92" rx="56.6536" ry="56.5896" fill="black"/>
<ellipse cx="3682.82" cy="1223.52" rx="94.4227" ry="94.316" fill="#7B2CBF"/>
<ellipse cx="3682.82" cy="1223.52" rx="56.6536" ry="56.5896" fill="black"/>
<line x1="16.5689" y1="2694.85" x2="16.5689" y2="9976.04" stroke="#7B2CBF" stroke-width="32.551"/>
<line x1="0.293457" y1="9959.76" x2="10197.9" y2="9959.76" stroke="#7B2CBF" stroke-width="32.551"/>
<defs>
<linearGradient id="paint0_linear_267_480" x1="5089.68" y1="16.2734" x2="5089.68" y2="9957.18" gradientUnits="userSpaceOnUse">
<stop stop-color="#7B2CBF"/>
<stop offset="1" stop-color="#FF7A00"/>
</linearGradient>
<linearGradient id="paint1_linear_267_480" x1="4154.85" y1="16.6191" x2="4154.85" y2="7863.37" gradientUnits="userSpaceOnUse">
<stop stop-color="#7B2CBF"/>
<stop offset="1" stop-color="#FF7A00"/>
</linearGradient>
<linearGradient id="paint2_linear_267_480" x1="3937.68" y1="3411.65" x2="3937.68" y2="8165.18" gradientUnits="userSpaceOnUse">
<stop stop-color="#7B2CBF"/>
<stop offset="1" stop-color="#FF7A00"/>
</linearGradient>
<linearGradient id="paint3_linear_267_480" x1="7336.91" y1="1449.87" x2="7336.91" y2="4053" gradientUnits="userSpaceOnUse">
<stop stop-color="#FF7A00"/>
<stop offset="1" stop-color="#347B6D"/>
</linearGradient>
<linearGradient id="paint4_linear_267_480" x1="1482.74" y1="4034.13" x2="1482.74" y2="6316.58" gradientUnits="userSpaceOnUse">
<stop stop-color="#347B6D"/>
<stop offset="1" stop-color="#5FE1C7"/>
</linearGradient>
<linearGradient id="paint5_linear_267_480" x1="2464.7" y1="4034.13" x2="2464.7" y2="6316.58" gradientUnits="userSpaceOnUse">
<stop stop-color="#347B6D"/>
<stop offset="1" stop-color="#5FE1C7"/>
</linearGradient>
<linearGradient id="paint6_linear_267_480" x1="1832.06" y1="8580.17" x2="6232.15" y2="8580.17" gradientUnits="userSpaceOnUse">
<stop stop-color="#347B6D"/>
<stop offset="1" stop-color="#5FE1C7"/>
</linearGradient>
<linearGradient id="paint7_linear_267_480" x1="7894.06" y1="5128.21" x2="7894.06" y2="6278.86" gradientUnits="userSpaceOnUse">
<stop stop-color="#347B6D"/>
<stop offset="1" stop-color="#5FE1C7"/>
</linearGradient>
<linearGradient id="paint8_linear_267_480" x1="8753.29" y1="3939.82" x2="8753.29" y2="6260" gradientUnits="userSpaceOnUse">
<stop stop-color="#347B6D"/>
<stop offset="1" stop-color="#5FE1C7"/>
</linearGradient>
</defs>
</svg>
