<svg width="2604" height="2312" viewBox="0 0 2604 2312" fill="none" xmlns="http://www.w3.org/2000/svg">
<path d="M1122.73 5.38761L1114.46 5.92094L1103.93 22.8543C1083.66 55.3876 1069.66 80.0543 1054.33 110.454C1040.59 137.788 1029.93 163.254 1031.66 164.854C1032.33 165.521 1059.13 166.454 1275.66 173.121C1311.26 174.188 1360.99 175.788 1386.32 176.454C1411.66 177.254 1446.06 178.321 1462.72 178.854L1493.25 179.788L1496.99 183.921C1498.99 186.321 1502.05 191.654 1503.65 195.921C1507.79 207.121 1508.19 211.121 1514.32 310.454C1515.79 333.921 1517.52 362.988 1518.32 375.121C1519.52 394.988 1520.72 416.454 1524.99 499.121C1533.92 670.454 1538.32 826.854 1538.32 973.121C1538.32 1109.79 1535.65 1179.12 1527.52 1257.79C1522.59 1305.39 1517.79 1326.72 1504.05 1361.12C1481.39 1418.32 1446.32 1471.52 1412.46 1500.32C1355.79 1548.45 1298.06 1548.19 1238.06 1499.52C1224.46 1488.45 1200.46 1462.85 1186.86 1445.12C1158.46 1407.65 1142.19 1380.19 1103.66 1304.45C1072.46 1243.25 1055.79 1212.05 1011.53 1131.79C997.393 1106.05 982.594 1078.85 978.594 1071.12C951.66 1019.25 913.928 980.188 847.929 936.054C837.396 928.988 829.396 922.988 829.929 922.721C830.596 922.321 834.862 920.988 839.662 919.788C879.929 909.388 938.727 883.788 981.927 857.921C1093.13 791.521 1158.33 701.388 1175.93 589.788C1179.79 565.654 1180.19 505.921 1176.59 481.121C1167.93 421.388 1152.59 380.321 1120.33 331.121C1048.06 220.854 922.728 147.388 762.329 121.254C709.263 112.721 670.198 109.788 604.999 109.788C540.999 109.788 493.932 112.854 429.666 121.254C387.533 126.721 391.667 125.521 386.6 133.121C382.467 139.521 357.933 179.521 354.867 185.121C354.067 186.588 349 195.521 343.667 205.121C326.734 235.121 313 265.921 313 274.054C313 276.988 313.267 276.988 332.2 273.788C434.866 256.188 555.932 252.988 649.798 265.121C858.996 292.321 998.46 385.521 1061.66 540.454C1075.79 575.121 1088.06 619.921 1088.06 637.121C1088.19 686.721 1030.06 742.454 950.327 768.988C897.661 786.588 852.061 793.121 784.995 792.988C725.663 792.854 684.198 788.321 614.599 774.321C570.332 765.521 520.999 752.321 472.333 736.321C461.4 732.721 452.066 730.321 451.533 730.854C439.533 744.054 416.867 776.854 402.333 801.788C394.067 816.054 369 864.588 369 866.321C369 866.721 367.134 870.854 365 875.521C362.734 880.321 361 884.721 361 885.388C361 886.054 365 887.388 370.067 888.321C375 889.254 387.4 892.054 397.667 894.588C509.399 922.454 620.465 975.388 712.331 1044.45C743.664 1068.05 763.396 1085.25 794.329 1116.32C849.795 1171.92 880.861 1213.52 927.661 1295.12C982.06 1390.19 1014.46 1439.39 1054.19 1487.12C1070.73 1507.12 1107.26 1543.52 1124.99 1557.79C1169.26 1593.26 1215.39 1615.12 1264.72 1624.06C1281.12 1626.99 1327.92 1627.39 1344.99 1624.59C1373.79 1620.06 1405.92 1610.59 1432.32 1598.85C1540.06 1550.85 1604.72 1416.99 1624.85 1200.45C1630.59 1139.25 1632.19 1089.79 1631.12 1011.12C1630.72 976.321 1629.92 939.121 1629.52 928.454L1628.59 909.121L1649.12 910.721C1727.65 916.721 1821.91 908.321 1899.51 888.321C2051.25 849.254 2162.44 764.721 2226.31 639.788C2253.64 586.054 2272.31 524.188 2282.31 453.788C2283.78 443.121 2285.91 429.654 2286.98 423.788C2294.31 383.921 2291.11 336.854 2279.11 308.188C2228.71 186.588 2025.51 86.5876 1732.98 39.2543C1632.58 22.9876 1537.12 13.7876 1399.66 6.98765C1371.92 5.65431 1139.39 4.32094 1122.73 5.38761ZM1648.32 201.788C1818.58 217.254 1969.11 253.921 2070.31 304.321C2176.85 357.521 2230.98 424.588 2232.04 505.121L2232.31 521.121L2223.11 535.788C2203.11 567.254 2184.44 590.588 2157.11 617.788C2095.91 678.721 2020.18 720.588 1928.31 744.454C1892.98 753.654 1863.25 758.854 1816.98 764.054C1789.78 767.121 1687.92 767.388 1653.79 764.588L1631.25 762.721L1632.19 723.254C1636.19 530.988 1632.72 387.921 1620.85 258.454C1618.99 237.921 1615.79 207.121 1614.99 202.721C1614.32 198.321 1611.25 198.454 1648.32 201.788Z" fill="#009900"/>
<path d="M1620.37 258.454C1618.5 237.921 1615.3 207.121 1614.5 202.721C1613.84 198.321 1610.77 198.454 1647.84 201.788C1818.1 217.254 1968.63 253.921 2069.83 304.321C2138.21 338.466 2184.99 378.324 2210.02 423.788L2286.49 335.476C2284.56 325.343 2281.93 316.07 2278.63 308.188C2228.23 186.588 2025.03 86.5876 1732.5 39.2542C1632.1 22.9876 1536.64 13.7876 1399.18 6.98765C1371.44 5.65431 1138.91 4.32094 1122.24 5.38761L1113.98 5.92094L1103.44 22.8543C1083.18 55.3876 1069.18 80.0543 1053.84 110.454C1040.11 137.788 1029.44 163.254 1031.18 164.854C1031.84 165.521 1058.65 166.454 1275.18 173.121C1310.78 174.188 1360.51 175.788 1385.84 176.454C1411.18 177.254 1445.57 178.321 1462.24 178.854L1492.77 179.788L1496.51 183.921C1498.51 186.321 1501.57 191.654 1503.17 195.921C1507.31 207.121 1507.71 211.121 1513.84 310.454C1515.31 333.921 1517.04 362.988 1517.84 375.121C1519.04 394.988 1520.24 416.454 1524.51 499.121C1533.44 670.454 1537.84 826.854 1537.84 973.121C1537.84 1109.79 1535.17 1179.12 1527.04 1257.79C1522.11 1305.39 1517.31 1326.72 1503.57 1361.12C1480.91 1418.32 1445.84 1471.52 1411.98 1500.32C1367.24 1538.32 1321.83 1546.16 1275.18 1523.82L1284.49 1546.5C1286.54 1546.92 1284.49 1548.5 1300.49 1556.5C1316.49 1564.5 1318.92 1565.3 1335.99 1562.5C1364.79 1557.97 1360.09 1558.23 1386.49 1546.5C1453.83 1516.5 1493.71 1485.31 1527.04 1389C1607.89 1164.62 1578.27 1058.3 1630.77 762.721L1631.7 723.254C1635.7 530.988 1632.24 387.921 1620.37 258.454Z" fill="#000066"/>
<path d="M1122.73 5.38761L1114.46 5.92094L1103.93 22.8543C1083.66 55.3876 1069.66 80.0543 1054.33 110.454C1040.59 137.788 1029.93 163.254 1031.66 164.854C1032.33 165.521 1059.13 166.454 1275.66 173.121C1311.26 174.188 1360.99 175.788 1386.32 176.454C1411.66 177.254 1446.06 178.321 1462.72 178.854L1493.25 179.788L1496.99 183.921C1498.99 186.321 1502.05 191.654 1503.65 195.921C1507.79 207.121 1508.19 211.121 1514.32 310.454C1515.79 333.921 1517.52 362.988 1518.32 375.121C1519.52 394.988 1520.72 416.454 1524.99 499.121C1533.92 670.454 1538.32 826.854 1538.32 973.121C1538.32 1109.79 1535.65 1179.12 1527.52 1257.79C1522.59 1305.39 1517.79 1326.72 1504.05 1361.12C1481.39 1418.32 1446.32 1471.52 1412.46 1500.32C1355.79 1548.45 1298.06 1548.19 1238.06 1499.52C1224.46 1488.45 1200.46 1462.85 1186.86 1445.12C1158.46 1407.65 1142.19 1380.19 1103.66 1304.45C1072.46 1243.25 1055.79 1212.05 1011.53 1131.79C997.393 1106.05 982.594 1078.85 978.594 1071.12C951.66 1019.25 913.928 980.188 847.929 936.054C837.396 928.988 829.396 922.988 829.929 922.721C830.596 922.321 834.862 920.988 839.662 919.788C879.929 909.388 938.727 883.788 981.927 857.921C1093.13 791.521 1158.33 701.388 1175.93 589.788C1179.79 565.654 1180.19 505.921 1176.59 481.121C1167.93 421.388 1152.59 380.321 1120.33 331.121C1048.06 220.854 922.728 147.388 762.329 121.254C709.263 112.721 670.198 109.788 604.999 109.788C540.999 109.788 493.932 112.854 429.666 121.254C387.533 126.721 391.667 125.521 386.6 133.121C382.467 139.521 357.933 179.521 354.867 185.121C354.067 186.588 349 195.521 343.667 205.121C326.734 235.121 313 265.921 313 274.054C313 276.988 313.267 276.988 332.2 273.788C434.866 256.188 555.932 252.988 649.798 265.121C858.996 292.321 998.46 385.521 1061.66 540.454C1075.79 575.121 1088.06 619.921 1088.06 637.121C1088.19 686.721 1030.06 742.454 950.327 768.988C897.661 786.588 852.061 793.121 784.995 792.988C725.663 792.854 684.198 788.321 614.599 774.321C570.332 765.521 520.999 752.321 472.333 736.321C461.4 732.721 452.066 730.321 451.533 730.854C439.533 744.054 416.867 776.854 402.333 801.788C394.067 816.054 369 864.588 369 866.321C369 866.721 367.134 870.854 365 875.521C362.734 880.321 361 884.721 361 885.388C361 886.054 365 887.388 370.067 888.321C375 889.254 387.4 892.054 397.667 894.588C509.399 922.454 620.465 975.388 712.331 1044.45C743.664 1068.05 763.396 1085.25 794.329 1116.32C849.795 1171.92 880.861 1213.52 927.661 1295.12C982.06 1390.19 1014.46 1439.39 1054.19 1487.12C1070.73 1507.12 1107.26 1543.52 1124.99 1557.79C1169.26 1593.26 1215.39 1615.12 1264.72 1624.06C1281.12 1626.99 1327.92 1627.39 1344.99 1624.59C1373.79 1620.06 1405.92 1610.59 1432.32 1598.85C1540.06 1550.85 1604.72 1416.99 1624.85 1200.45C1630.59 1139.25 1632.19 1089.79 1631.12 1011.12C1630.72 976.321 1629.92 939.121 1629.52 928.454L1628.59 909.121L1649.12 910.721C1727.65 916.721 1821.91 908.321 1899.51 888.321C2051.25 849.254 2162.44 764.721 2226.31 639.788C2253.64 586.054 2272.31 524.188 2282.31 453.788C2283.78 443.121 2285.91 429.654 2286.98 423.788C2294.31 383.921 2291.11 336.854 2279.11 308.188C2228.71 186.588 2025.51 86.5876 1732.98 39.2543C1632.58 22.9876 1537.12 13.7876 1399.66 6.98765C1371.92 5.65431 1139.39 4.32094 1122.73 5.38761ZM1648.32 201.788C1818.58 217.254 1969.11 253.921 2070.31 304.321C2176.85 357.521 2230.98 424.588 2232.04 505.121L2232.31 521.121L2223.11 535.788C2203.11 567.254 2184.44 590.588 2157.11 617.788C2095.91 678.721 2020.18 720.588 1928.31 744.454C1892.98 753.654 1863.25 758.854 1816.98 764.054C1789.78 767.121 1687.92 767.388 1653.79 764.588L1631.25 762.721L1632.19 723.254C1636.19 530.988 1632.72 387.921 1620.85 258.454C1618.99 237.921 1615.79 207.121 1614.99 202.721C1614.32 198.321 1611.25 198.454 1648.32 201.788Z" stroke="black" stroke-width="10"/>
<path d="M1620.37 258.454C1618.5 237.921 1615.3 207.121 1614.5 202.721C1613.84 198.321 1610.77 198.454 1647.84 201.788C1818.1 217.254 1968.63 253.921 2069.83 304.321C2138.21 338.466 2184.99 378.324 2210.02 423.788L2286.49 335.476C2284.56 325.343 2281.93 316.07 2278.63 308.188C2228.23 186.588 2025.03 86.5876 1732.5 39.2542C1632.1 22.9876 1536.64 13.7876 1399.18 6.98765C1371.44 5.65431 1138.91 4.32094 1122.24 5.38761L1113.98 5.92094L1103.44 22.8543C1083.18 55.3876 1069.18 80.0543 1053.84 110.454C1040.11 137.788 1029.44 163.254 1031.18 164.854C1031.84 165.521 1058.65 166.454 1275.18 173.121C1310.78 174.188 1360.51 175.788 1385.84 176.454C1411.18 177.254 1445.57 178.321 1462.24 178.854L1492.77 179.788L1496.51 183.921C1498.51 186.321 1501.57 191.654 1503.17 195.921C1507.31 207.121 1507.71 211.121 1513.84 310.454C1515.31 333.921 1517.04 362.988 1517.84 375.121C1519.04 394.988 1520.24 416.454 1524.51 499.121C1533.44 670.454 1537.84 826.854 1537.84 973.121C1537.84 1109.79 1535.17 1179.12 1527.04 1257.79C1522.11 1305.39 1517.31 1326.72 1503.57 1361.12C1480.91 1418.32 1445.84 1471.52 1411.98 1500.32C1367.24 1538.32 1321.83 1546.16 1275.18 1523.82L1284.49 1546.5C1286.54 1546.92 1284.49 1548.5 1300.49 1556.5C1316.49 1564.5 1318.92 1565.3 1335.99 1562.5C1364.79 1557.97 1360.09 1558.23 1386.49 1546.5C1453.83 1516.5 1493.71 1485.31 1527.04 1389C1607.89 1164.62 1578.27 1058.3 1630.77 762.721L1631.7 723.254C1635.7 530.988 1632.24 387.921 1620.37 258.454Z" stroke="black" stroke-width="10"/>
<path d="M1066.25 2017V1827.91H1147.87C1161.9 1827.91 1174.18 1830.68 1184.71 1836.22C1195.23 1841.76 1203.42 1849.54 1209.27 1859.58C1215.11 1869.61 1218.04 1881.34 1218.04 1894.76C1218.04 1908.3 1215.02 1920.02 1208.99 1929.93C1203.02 1939.84 1194.62 1947.48 1183.78 1952.83C1173.01 1958.19 1160.42 1960.86 1146.02 1960.86H1097.27V1920.98H1135.68C1141.71 1920.98 1146.85 1919.93 1151.1 1917.84C1155.41 1915.68 1158.7 1912.64 1160.98 1908.7C1163.32 1904.76 1164.49 1900.11 1164.49 1894.76C1164.49 1889.34 1163.32 1884.72 1160.98 1880.91C1158.7 1877.03 1155.41 1874.07 1151.1 1872.04C1146.85 1869.95 1141.71 1868.9 1135.68 1868.9H1117.58V2017H1066.25ZM1289.66 2019.95C1276.12 2019.95 1264.46 2017.55 1254.67 2012.75C1244.88 2007.95 1237.37 2001.52 1232.14 1993.46C1226.91 1985.39 1224.29 1976.5 1224.29 1966.77C1224.29 1959.69 1225.65 1953.45 1228.36 1948.03C1231.06 1942.55 1234.85 1937.54 1239.71 1932.98C1244.57 1928.43 1250.27 1923.93 1256.79 1919.5L1299.63 1892.91C1303.94 1890.2 1306.87 1887.4 1308.41 1884.51C1309.94 1881.55 1310.71 1878.94 1310.71 1876.66C1310.71 1873.64 1309.61 1870.97 1307.39 1868.63C1305.17 1866.29 1301.73 1865.15 1297.05 1865.21C1294.16 1865.21 1291.66 1865.76 1289.57 1866.87C1287.48 1867.92 1285.85 1869.4 1284.68 1871.3C1283.57 1873.21 1283.01 1875.49 1283.01 1878.14C1283.01 1881.77 1284.06 1885.49 1286.15 1889.31C1288.25 1893.06 1291.11 1897.13 1294.74 1901.5C1298.37 1905.87 1302.47 1910.76 1307.02 1916.18L1398.61 2017H1347.65L1270.83 1935.75C1267.07 1931.75 1262.92 1926.86 1258.36 1921.07C1253.81 1915.22 1249.87 1908.64 1246.54 1901.31C1243.28 1893.99 1241.65 1886.02 1241.65 1877.4C1241.65 1867.8 1243.96 1859.02 1248.58 1851.08C1253.19 1843.14 1259.66 1836.8 1267.97 1832.06C1276.27 1827.32 1285.97 1824.95 1297.05 1824.95C1307.64 1824.95 1316.75 1827.14 1324.38 1831.51C1332.07 1835.88 1337.98 1841.7 1342.11 1848.96C1346.29 1856.22 1348.38 1864.23 1348.38 1872.97C1348.38 1881.77 1346.2 1889.99 1341.83 1897.62C1337.52 1905.25 1331.33 1911.93 1323.27 1917.65L1284.12 1945.35C1281.11 1947.45 1278.49 1949.85 1276.27 1952.55C1274.12 1955.26 1273.04 1958.77 1273.04 1963.08C1273.04 1966.65 1273.87 1969.7 1275.54 1972.22C1277.2 1974.74 1279.54 1976.68 1282.55 1978.04C1285.63 1979.39 1289.23 1980.07 1293.36 1980.07C1299.63 1980.07 1305.91 1978.56 1312.19 1975.54C1318.53 1972.47 1324.32 1968.19 1329.55 1962.71C1334.78 1957.17 1338.97 1950.65 1342.11 1943.14C1345.31 1935.57 1346.91 1927.32 1346.91 1918.39H1387.16C1387.16 1929.35 1386.02 1939.9 1383.75 1950.06C1381.47 1960.22 1377.81 1969.51 1372.76 1977.94C1367.71 1986.38 1361.06 1993.49 1352.82 1999.27C1350.23 2000.57 1347.71 2001.8 1345.24 2002.97C1342.78 2004.14 1340.26 2005.37 1337.67 2006.66C1330.1 2011.52 1322.19 2014.97 1313.95 2017C1305.7 2018.97 1297.6 2019.95 1289.66 2019.95ZM1487.2 1827.91H1537.8V1957.54C1537.74 1969.85 1534.63 1980.68 1528.47 1990.04C1522.38 1999.33 1513.95 2006.6 1503.17 2011.83C1492.46 2017 1480.12 2019.59 1466.15 2019.59C1454.02 2019.59 1442.94 2017.49 1432.91 2013.31C1422.88 2009.06 1414.88 2002.41 1408.91 1993.36C1402.94 1984.25 1399.98 1972.44 1400.04 1957.91H1451.38C1451.56 1962.65 1452.36 1966.65 1453.78 1969.91C1455.26 1973.17 1457.29 1975.64 1459.87 1977.3C1462.52 1978.9 1465.72 1979.7 1469.47 1979.7C1473.29 1979.7 1476.49 1978.87 1479.08 1977.21C1481.72 1975.54 1483.72 1973.08 1485.08 1969.82C1486.43 1966.5 1487.14 1962.4 1487.2 1957.54V1827.91ZM12.5371 2277V2087.91H63.8723V2235.64H140.321V2277H12.5371ZM161.072 2277V2087.91H297.351V2129.27H212.407V2161.77H290.334V2203.14H212.407V2235.64H296.981V2277H161.072ZM445.609 2150.32C444.809 2147.06 443.547 2144.2 441.823 2141.74C440.1 2139.21 437.945 2137.09 435.36 2135.37C432.837 2133.58 429.882 2132.26 426.497 2131.4C423.173 2130.47 419.51 2130.01 415.509 2130.01C406.892 2130.01 399.536 2132.07 393.443 2136.2C387.41 2140.32 382.794 2146.26 379.593 2154.02C376.454 2161.77 374.884 2171.13 374.884 2182.09C374.884 2193.16 376.392 2202.64 379.409 2210.52C382.425 2218.4 386.918 2224.43 392.889 2228.62C398.859 2232.8 406.276 2234.9 415.14 2234.9C422.957 2234.9 429.451 2233.76 434.622 2231.48C439.854 2229.2 443.762 2225.97 446.347 2221.79C448.933 2217.6 450.225 2212.68 450.225 2207.01L459.089 2207.94H415.879V2171.38H499.714V2197.6C499.714 2214.83 496.052 2229.57 488.727 2241.82C481.463 2254.01 471.43 2263.37 458.627 2269.89C445.886 2276.35 431.267 2279.59 414.771 2279.59C396.366 2279.59 380.209 2275.68 366.298 2267.86C352.387 2260.04 341.523 2248.9 333.705 2234.44C325.95 2219.97 322.072 2202.77 322.072 2182.82C322.072 2167.19 324.442 2153.34 329.181 2141.28C333.982 2129.21 340.63 2119.02 349.124 2110.71C357.619 2102.34 367.436 2096.03 378.578 2091.79C389.719 2087.48 401.66 2085.32 414.401 2085.32C425.604 2085.32 436.007 2086.92 445.609 2090.12C455.273 2093.26 463.798 2097.76 471.184 2103.61C478.632 2109.39 484.633 2116.25 489.188 2124.19C493.743 2132.13 496.513 2140.84 497.498 2150.32H445.609ZM566.93 2277H511.532L573.947 2087.91H644.117L706.532 2277H651.134L609.771 2139.98H608.294L566.93 2277ZM556.589 2202.4H660.737V2240.81H556.589V2202.4ZM724.744 2277V2087.91H776.079V2235.64H852.528V2277H724.744ZM917.32 2087.91H974.565L1011.5 2164.73H1012.97L1049.91 2087.91H1107.15L1037.72 2217.54V2277H986.752V2217.54L917.32 2087.91ZM1352.22 2158.82H1300.14C1299.77 2154.51 1298.79 2150.6 1297.19 2147.09C1295.65 2143.58 1293.49 2140.57 1290.72 2138.04C1288.02 2135.46 1284.72 2133.49 1280.84 2132.13C1276.97 2130.72 1272.57 2130.01 1267.64 2130.01C1259.02 2130.01 1251.73 2132.1 1245.76 2136.29C1239.85 2140.48 1235.36 2146.48 1232.28 2154.29C1229.26 2162.11 1227.76 2171.5 1227.76 2182.45C1227.76 2194.03 1229.29 2203.72 1232.37 2211.54C1235.51 2219.29 1240.04 2225.14 1245.94 2229.08C1251.85 2232.96 1258.96 2234.9 1267.27 2234.9C1272.01 2234.9 1276.26 2234.31 1280.01 2233.14C1283.77 2231.91 1287.03 2230.16 1289.8 2227.88C1292.57 2225.6 1294.82 2222.86 1296.54 2219.66C1298.33 2216.4 1299.53 2212.74 1300.14 2208.68L1352.22 2209.05C1351.6 2217.05 1349.35 2225.2 1345.48 2233.51C1341.6 2241.76 1336.09 2249.39 1328.95 2256.41C1321.87 2263.37 1313.1 2268.97 1302.63 2273.21C1292.17 2277.46 1280.01 2279.59 1266.16 2279.59C1248.81 2279.59 1233.23 2275.86 1219.45 2268.41C1205.72 2260.97 1194.86 2250.01 1186.85 2235.54C1178.91 2221.08 1174.94 2203.38 1174.94 2182.45C1174.94 2161.4 1179.01 2143.68 1187.13 2129.27C1195.26 2114.81 1206.21 2103.88 1220 2096.5C1233.79 2089.05 1249.18 2085.32 1266.16 2085.32C1278.11 2085.32 1289.09 2086.96 1299.13 2090.22C1309.16 2093.48 1317.96 2098.25 1325.53 2104.53C1333.1 2110.75 1339.2 2118.41 1343.81 2127.52C1348.43 2136.63 1351.23 2147.06 1352.22 2158.82ZM1558.69 2182.45C1558.69 2203.51 1554.59 2221.26 1546.41 2235.73C1538.22 2250.13 1527.17 2261.06 1513.26 2268.51C1499.35 2275.89 1483.84 2279.59 1466.73 2279.59C1449.49 2279.59 1433.92 2275.86 1420.01 2268.41C1406.16 2260.9 1395.14 2249.95 1386.95 2235.54C1378.83 2221.08 1374.77 2203.38 1374.77 2182.45C1374.77 2161.4 1378.83 2143.68 1386.95 2129.27C1395.14 2114.81 1406.16 2103.88 1420.01 2096.5C1433.92 2089.05 1449.49 2085.32 1466.73 2085.32C1483.84 2085.32 1499.35 2089.05 1513.26 2096.5C1527.17 2103.88 1538.22 2114.81 1546.41 2129.27C1554.59 2143.68 1558.69 2161.4 1558.69 2182.45ZM1505.88 2182.45C1505.88 2171.13 1504.37 2161.59 1501.35 2153.83C1498.4 2146.02 1494 2140.11 1488.15 2136.11C1482.36 2132.04 1475.22 2130.01 1466.73 2130.01C1458.23 2130.01 1451.06 2132.04 1445.21 2136.11C1439.43 2140.11 1435.03 2146.02 1432.01 2153.83C1429.06 2161.59 1427.58 2171.13 1427.58 2182.45C1427.58 2193.78 1429.06 2203.35 1432.01 2211.17C1435.03 2218.92 1439.43 2224.83 1445.21 2228.9C1451.06 2232.9 1458.23 2234.9 1466.73 2234.9C1475.22 2234.9 1482.36 2232.9 1488.15 2228.9C1494 2224.83 1498.4 2218.92 1501.35 2211.17C1504.37 2203.35 1505.88 2193.78 1505.88 2182.45ZM1746.05 2087.91V2277H1703.21L1634.88 2177.65H1633.77V2277H1582.44V2087.91H1626.02L1693.23 2186.89H1694.71V2087.91H1746.05ZM1765.16 2129.27V2087.91H1929.51V2129.27H1872.63V2277H1822.03V2129.27H1765.16ZM1974.08 2277H1918.68L1981.1 2087.91H2051.27L2113.68 2277H2058.28L2016.92 2139.98H2015.44L1974.08 2277ZM1963.74 2202.4H2067.89V2240.81H1963.74V2202.4ZM2131.89 2277V2087.91H2213.88C2228.28 2087.91 2240.38 2089.85 2250.17 2093.73C2260.02 2097.6 2267.43 2103.08 2272.42 2110.16C2277.47 2117.24 2279.99 2125.58 2279.99 2135.18C2279.99 2142.14 2278.45 2148.48 2275.37 2154.2C2272.36 2159.93 2268.11 2164.73 2262.63 2168.61C2257.15 2172.42 2250.75 2175.07 2243.43 2176.55V2178.39C2251.55 2178.7 2258.94 2180.76 2265.59 2184.58C2272.23 2188.33 2277.53 2193.53 2281.47 2200.18C2285.41 2206.77 2287.38 2214.52 2287.38 2223.45C2287.38 2233.79 2284.67 2242.99 2279.25 2251.06C2273.9 2259.12 2266.26 2265.46 2256.35 2270.08C2246.44 2274.69 2234.62 2277 2220.9 2277H2131.89ZM2183.23 2236.01H2207.23C2215.85 2236.01 2222.31 2234.41 2226.62 2231.2C2230.93 2227.94 2233.09 2223.14 2233.09 2216.8C2233.09 2212.37 2232.07 2208.61 2230.04 2205.54C2228.01 2202.46 2225.11 2200.12 2221.36 2198.52C2217.67 2196.92 2213.2 2196.12 2207.97 2196.12H2183.23V2236.01ZM2183.23 2164.36H2204.28C2208.77 2164.36 2212.74 2163.65 2216.19 2162.23C2219.64 2160.82 2222.31 2158.79 2224.22 2156.14C2226.19 2153.43 2227.18 2150.14 2227.18 2146.26C2227.18 2140.41 2225.08 2135.95 2220.9 2132.87C2216.71 2129.73 2211.42 2128.16 2205.02 2128.16H2183.23V2164.36ZM2305.56 2277V2087.91H2356.9V2235.64H2433.35V2277H2305.56ZM2454.1 2277V2087.91H2590.38V2129.27H2505.43V2161.77H2583.36V2203.14H2505.43V2235.64H2590.01V2277H2454.1Z" fill="white"/>
</svg>
