<svg width="78" height="69" viewBox="0 0 78 69" fill="none" xmlns="http://www.w3.org/2000/svg">
<g clip-path="url(#clip0_19_615)">
<path fill-rule="evenodd" clip-rule="evenodd" d="M40.5569 32.3643C36.8684 32.3643 36.8684 36.2089 36.8684 36.2089C36.8684 36.2089 36.5734 38.3513 36.8684 40.2096C37.0161 42.0539 37.4584 44.3382 40.8519 44.3382C44.4076 44.3382 44.7034 41.0605 44.7034 40.3516V40.0679H42.3273C42.3273 41.4862 42.0323 42.3371 40.5569 42.3371C38.9342 42.3371 39.0665 39.7699 39.0665 39.7699C39.0665 39.7699 38.9338 38.2089 39.0665 36.3505C39.2142 34.0806 40.7046 34.2226 40.7046 34.2226C42.475 34.2226 42.475 36.7902 42.475 36.7902H44.703V36.2085C44.5549 34.7903 44.2603 32.3643 40.5569 32.3643ZM51.0771 32.2223C49.5864 32.2223 48.7014 33.2152 48.7014 33.2152V28.094H46.4883V44.1962H48.8491V35.7833C48.8491 35.7833 48.8491 34.2226 50.3399 34.2226C51.8148 34.2226 51.9625 35.3576 51.9625 35.7833V44.1962H54.0429V35.6416C54.0425 35.6416 54.0425 32.2223 51.0771 32.2223ZM58.3363 41.2029C58.1886 39.4862 58.3363 38.9186 58.3363 38.9186H64.2677C64.2677 38.0672 64.2677 37.784 64.12 36.2093C63.9723 34.7907 63.3678 32.3647 60.1216 32.3647C56.4032 32.3647 56.1082 36.3513 56.1082 36.3513C56.1082 36.3513 55.9605 38.352 56.1082 40.21C56.4032 42.0543 56.6986 44.4803 60.2544 44.4803C63.8242 44.4803 64.12 41.0613 64.12 40.3524H61.5966C61.5966 43.3449 58.6313 43.0616 58.3363 41.2029ZM60.1216 34.223C61.892 34.223 61.5966 37.0746 61.5966 37.0746H58.4836C58.4832 33.9389 60.1216 34.223 60.1216 34.223ZM30.642 32.3643C26.9386 32.3643 26.7909 36.3509 26.7909 36.3509C26.7909 36.3509 26.6432 38.2092 26.7909 40.2096C26.9386 42.0539 27.2336 44.3382 30.937 44.3382C34.6404 44.3382 34.6404 41.0605 34.7881 40.3516V36.3509C34.7877 34.9323 34.345 32.3643 30.642 32.3643ZM32.2647 39.7703C32.2647 41.4862 32.117 42.3375 30.7893 42.3375C29.0039 42.3375 29.1516 39.9263 29.1516 39.9263V36.3513C29.1516 34.2234 30.7893 34.2234 30.7893 34.2234C32.4124 34.2234 32.4124 36.5074 32.4124 36.5074C32.4124 36.5074 32.2647 39.0606 32.2647 39.7703ZM23.2347 35.7833C23.2347 35.7833 25.0051 35.216 25.0051 32.0802C25.0051 28.5193 21.0067 28.2356 20.1213 28.2356H16.7129V44.1962H19.0882V36.7906H20.2686C22.3344 36.7906 22.4966 38.4929 22.4966 38.4929L22.7916 44.1962H25.1524C25.1524 44.1962 25.0047 41.2029 24.8574 38.6349C24.5628 36.0673 23.2347 35.7833 23.2347 35.7833ZM19.0886 34.9323V30.378C19.679 30.378 22.6448 30.0943 22.6448 32.3639C22.6448 35.358 19.0886 34.9323 19.0886 34.9323Z" fill="#0B41CD"/>
<path fill-rule="evenodd" clip-rule="evenodd" d="M60.1211 17.8369H18.1886L1.14648 37.3585L18.1882 57.1633H60.1207L76.8525 37.3585L60.1211 17.8369ZM59.2212 55.3054H19.0882L3.52263 37.3585L19.0886 19.8232H59.2212L74.4921 37.3585L59.2212 55.3054Z" fill="#0B41CD"/>
</g>
<defs>
<clipPath id="clip0_19_615">
<rect width="78" height="75" fill="white"/>
</clipPath>
</defs>
</svg>
