<svg width="256" height="252" viewBox="0 0 256 252" fill="none" xmlns="http://www.w3.org/2000/svg">
<path d="M73.9643 25.5999H74.4384V25.1259H73.9643V25.5999ZM73.9643 183.467H73.4903V183.941H73.9643V183.467ZM125.164 183.467L125.485 183.117L125.349 182.993H125.164V183.467ZM126.112 184.337L125.792 184.687H125.792L126.112 184.337ZM148.394 204.8L148.396 205.274L148.868 205.272V204.8H148.394ZM185.846 132.741H186.32V131.596L185.511 132.405L185.846 132.741ZM148.394 170.193L148.059 169.857L147.92 169.996V170.193H148.394ZM230.883 226.607L231.211 226.266L231.074 226.133H230.883V226.607ZM255.535 250.311L255.206 250.653L256.009 251.425V250.311H255.535ZM255.535 0.948073H256.009V0.473999H255.535V0.948073ZM185.846 43.6147L186.184 43.9469L186.32 43.8086V43.6147H185.846ZM208.127 50.2518H208.601V49.0975L207.79 49.9186L208.127 50.2518ZM207.653 197.689C207.653 197.951 207.865 198.163 208.127 198.163C208.389 198.163 208.601 197.951 208.601 197.689H208.127H207.653ZM129.431 129.896L129.095 130.231L129.432 130.569L129.768 130.229L129.431 129.896ZM102.506 102.874L102.17 103.209V103.209L102.506 102.874ZM76.3347 76.6083L75.9989 76.9429V76.9429L76.3347 76.6083ZM25.5099 67.7925H25.9839V67.7925H25.5099ZM0.482858 67.7925H0.00878432V67.7925H0.482858ZM130.379 49.3037L130.718 49.6349L130.853 49.4968V49.3037H130.379ZM90.2178 89.7428C90.0348 89.9301 90.0384 90.2302 90.2257 90.4132C90.413 90.5961 90.7131 90.5926 90.8961 90.4053L90.5569 90.074L90.2178 89.7428ZM129.431 160.711L129.093 161.044L129.432 161.387L129.769 161.043L129.431 160.711ZM230.409 25.6V26.0741L230.602 26.0741L230.741 25.9384L230.409 25.6ZM49.3126 205.274H48.8385V205.75L49.3149 205.748L49.3126 205.274ZM111.416 41.7185L111.75 42.0546L111.89 41.9156V41.7185H111.416ZM149.342 0.856414L149.343 0.382342V0.382342L149.342 0.856414ZM168.305 36.5036L168.642 36.8374L168.779 36.6988V36.5036L168.305 36.5036ZM92.4534 151.23L92.7858 150.892L91.9793 150.098L91.9793 151.23H92.4534ZM205.757 36.5036V36.0295H205.556L205.416 36.1739L205.757 36.5036ZM219.979 36.5036L220.453 36.507L220.457 36.0295H219.979V36.5036ZM32.7197 136.059V136.533H33.1938V136.059H32.7197ZM32.7197 129.896L33.1513 129.7L32.2457 129.896H32.7197ZM35.0901 135.111L34.6585 135.307L35.563 135.144L35.0901 135.111ZM37.4605 101.452L37.9343 101.436L36.9876 101.419L37.4605 101.452ZM39.3568 158.815L38.883 158.83L39.8283 158.864L39.3568 158.815ZM41.7271 136.059V135.585H41.2999L41.2556 136.01L41.7271 136.059ZM58.7939 136.059V136.533H59.2427L59.2673 136.085L58.7939 136.059ZM60.6902 101.452L61.1639 101.432L60.2169 101.426L60.6902 101.452ZM63.0606 158.815L62.5869 158.834L63.531 158.874L63.0606 158.815ZM65.9051 136.059V135.585H65.4865L65.4346 136L65.9051 136.059ZM129.431 173.985L129.096 174.32L129.43 174.654L129.765 174.322L129.431 173.985ZM129.431 145.541L129.101 145.881L129.438 146.208L129.768 145.874L129.431 145.541ZM100.038 216.178V216.652H100.344L100.47 216.374L100.038 216.178ZM102.409 210.963L102.863 210.827L102.5 209.617L101.977 210.767L102.409 210.963ZM105.253 220.444L104.799 220.581L105.063 221.461L105.627 220.735L105.253 220.444ZM108.572 216.178V215.704H108.34L108.198 215.887L108.572 216.178ZM63.0606 195.318H62.5866V195.793H63.0606V195.318ZM193.905 136.059V136.533H194.349L194.378 136.091L193.905 136.059ZM194.379 128.948L194.851 128.902L193.906 128.917L194.379 128.948ZM197.224 157.867L196.752 157.913L197.694 157.928L197.224 157.867ZM200.068 136.059V135.585H199.652L199.598 135.998L200.068 136.059ZM215.238 135.111V135.585H215.68L215.711 135.145L215.238 135.111ZM215.713 128.474L216.17 128.349L215.24 128.44L215.713 128.474ZM217.135 133.689L216.677 133.814L217.608 133.721L217.135 133.689ZM219.505 99.0814L219.979 99.066L219.032 99.049L219.505 99.0814ZM221.401 157.393L220.928 157.408L221.872 157.453L221.401 157.393ZM224.246 135.111V134.637H223.828L223.776 135.051L224.246 135.111ZM167.357 226.607H166.883V250.311H167.357H167.831V226.607H167.357ZM0.00878906 0.473999L0.000232876 0.947996L0.474307 0.956553L0.482863 0.482557L0.491419 0.00855976L0.0173452 2.17557e-06L0.00878906 0.473999ZM0.482863 0.482557L0.147039 0.817173L25.1741 25.9345L25.5099 25.5999L25.8457 25.2653L0.818688 0.14794L0.482863 0.482557ZM73.9643 25.5999V25.1259H25.5099V25.5999V26.074H73.9643V25.5999ZM73.9643 183.467H74.4384V25.5999H73.9643H73.4903V183.467H73.9643ZM92.4532 183.467V182.993H73.9643V183.467V183.941H92.4532V183.467ZM125.164 183.467V182.993H92.4532V183.467V183.941H125.164V183.467ZM126.112 184.337L126.433 183.988L125.485 183.117L125.164 183.467L124.844 183.816L125.792 184.687L126.112 184.337ZM148.394 204.8L148.715 204.451L126.433 183.988L126.112 184.337L125.792 184.687L148.073 205.149L148.394 204.8ZM185.846 226.607H186.32L186.32 132.741H185.846H185.372L185.372 226.607H185.846ZM185.846 132.741L185.511 132.405L148.059 169.857L148.394 170.193L148.729 170.528L186.181 133.076L185.846 132.741ZM148.394 170.193H147.92V204.8H148.394H148.868V170.193H148.394ZM230.883 226.607V226.133L185.846 226.133V226.607V227.082L230.883 227.081V226.607ZM230.959 226.68L231.287 226.339L231.211 226.266L230.883 226.607L230.554 226.949L230.63 227.022L230.959 226.68ZM255.535 250.311L255.863 249.969L231.287 226.339L230.959 226.68L230.63 227.022L255.206 250.653L255.535 250.311ZM255.535 187.259H255.061V250.311H255.535H256.009V187.259H255.535ZM255.535 170.193H255.061V187.259H255.535H256.009V170.193H255.535ZM255.535 153.126H255.061V170.193H255.535H256.009V153.126H255.535ZM255.535 136.059H255.061V153.126H255.535H256.009V136.059H255.535ZM255.535 118.993H255.061V136.059H255.535H256.009V118.993H255.535ZM255.535 101.452H255.061V118.993H255.535H256.009V101.452H255.535ZM255.535 84.3851H255.061V101.452H255.535H256.009V84.3851H255.535ZM255.535 67.7925H255.061V84.3851H255.535H256.009V67.7925H255.535ZM255.535 0.948073H255.061V67.7925H255.535H256.009V0.948073H255.535ZM185.846 0.948073V1.42215H255.535V0.948073V0.473999H185.846V0.948073ZM185.846 25.5999H186.32V0.948073H185.846H185.372V25.5999H185.846ZM134.646 95.7629L134.984 96.095L186.184 43.9469L185.846 43.6147L185.508 43.2826L134.308 95.4308L134.646 95.7629ZM185.846 43.6147H186.32V25.5999H185.846H185.372V43.6147H185.846ZM208.127 50.2518H207.653V197.689H208.127H208.601V50.2518H208.127ZM129.431 129.896L129.768 130.229L208.465 50.585L208.127 50.2518L207.79 49.9186L129.094 129.563L129.431 129.896ZM102.506 102.874L102.17 103.209L129.095 130.231L129.431 129.896L129.767 129.562L102.842 102.539L102.506 102.874ZM76.3347 76.6083L75.9989 76.9429L102.17 103.209L102.506 102.874L102.842 102.539L76.6705 76.2737L76.3347 76.6083ZM25.5099 25.5999L25.1741 25.9345L75.9989 76.9429L76.3347 76.6083L76.6705 76.2737L25.8457 25.2653L25.5099 25.5999ZM25.5099 25.5999H25.0358L25.0358 67.7925H25.5099H25.9839L25.984 25.5999H25.5099ZM0.482858 67.7925V68.2666H25.5099V67.7925V67.3185H0.482858V67.7925ZM0.482858 67.7925H0.956932L0.956937 0.482557L0.482863 0.482557L0.00878906 0.482557L0.00878432 67.7925H0.482858ZM0.482863 0.482557L0.481672 0.956629L92.452 1.18763L92.4532 0.713553L92.4544 0.23948L0.484054 0.00848404L0.482863 0.482557ZM111.416 0.761176L111.415 1.23525L130.378 1.28287L130.379 0.8088L130.38 0.334727L111.417 0.287104L111.416 0.761176ZM130.379 0.8088H129.905V49.3037H130.379H130.853V0.8088H130.379ZM130.379 49.3037L130.04 48.9724L90.2178 89.7428L90.5569 90.074L90.8961 90.4053L130.718 49.6349L130.379 49.3037ZM97.1941 128L96.8565 128.333L129.093 161.044L129.431 160.711L129.769 160.378L97.5318 127.667L97.1941 128ZM129.431 160.711L129.769 161.043L182.392 107.473L182.053 107.141L181.715 106.809L129.093 160.379L129.431 160.711ZM168.305 0.904064L168.304 1.37814L185.845 1.42215L185.846 0.948073L185.847 0.474001L168.306 0.429991L168.305 0.904064ZM255.535 0.948073L255.203 0.609676L230.627 24.722L230.959 25.0604L231.291 25.3988L255.867 1.28647L255.535 0.948073ZM230.409 25.6V25.1259L185.846 25.1259V25.5999V26.074L230.409 26.0741V25.6ZM230.959 25.0604L230.627 24.722L230.077 25.2616L230.409 25.6L230.741 25.9384L231.291 25.3988L230.959 25.0604ZM185.846 251.259H186.32L186.32 226.607H185.846H185.372L185.372 251.259H185.846ZM148.394 204.8L148.392 204.326L49.3103 204.8L49.3126 205.274L49.3149 205.748L148.396 205.274L148.394 204.8ZM49.3126 205.274H49.7867V85.8073H49.3126H48.8385V205.274H49.3126ZM25.5098 187.259H25.0357V227.081H25.5098H25.9839V187.259H25.5098ZM92.4532 0.713553L91.9791 0.713555L91.9793 28.9184L92.4534 28.9184L92.9274 28.9184L92.9273 0.713551L92.4532 0.713553ZM111.416 0.761176L110.942 0.761176L110.942 41.7185H111.416H111.89L111.89 0.761176L111.416 0.761176ZM111.416 41.7185L111.082 41.3823L76.0004 76.2721L76.3347 76.6083L76.669 76.9444L111.75 42.0546L111.416 41.7185ZM130.379 0.8088L130.378 1.28287L149.341 1.33049L149.342 0.856414L149.343 0.382342L130.38 0.334727L130.379 0.8088ZM149.342 0.856414L148.868 0.856417L148.868 28.9184L149.342 28.9184L149.816 28.9184L149.816 0.856412L149.342 0.856414ZM149.342 0.856414L149.341 1.33049L168.304 1.37814L168.305 0.904064L168.306 0.429991L149.343 0.382342L149.342 0.856414ZM168.305 0.904064L167.831 0.904067L167.831 36.5036L168.305 36.5036L168.779 36.5036L168.779 0.90406L168.305 0.904064ZM168.305 36.5036L167.969 36.1699L102.169 102.54L102.506 102.874L102.843 103.208L168.642 36.8374L168.305 36.5036ZM230.959 25.0604H230.485V67.7926H230.959H231.433V25.0604H230.959ZM230.959 187.259H230.485L230.485 226.68H230.959H231.433L231.433 187.259H230.959ZM230.959 67.7926V68.2667L255.535 68.2666V67.7925V67.3184L230.959 67.3185V67.7926ZM230.959 67.7926H230.485V84.3851H230.959H231.433V67.7926H230.959ZM230.959 84.3851V84.8592L255.535 84.8592V84.3851V83.911L230.959 83.9111V84.3851ZM230.959 84.3851H230.485V118.993H230.959H231.433V84.3851H230.959ZM230.883 101.452V101.926L255.535 101.926V101.452V100.978L230.883 100.978V101.452ZM230.959 118.993V119.467L255.535 119.467V118.993V118.518L230.959 118.518V118.993ZM230.959 118.993H230.485V136.059H230.959H231.433V118.993H230.959ZM230.959 136.059V136.533L255.535 136.533V136.059V135.585L230.959 135.585V136.059ZM230.959 136.059H230.485V153.126H230.959H231.433V136.059H230.959ZM230.959 153.126V153.6L255.535 153.6V153.126V152.652L230.959 152.652V153.126ZM230.959 153.126H230.485V170.193H230.959H231.433V153.126H230.959ZM230.959 170.193V170.667H255.535V170.193V169.718H230.959V170.193ZM230.959 170.193H230.485V187.259H230.959H231.433V170.193H230.959ZM230.959 187.259V187.733L255.535 187.733V187.259V186.785L230.959 186.785V187.259ZM167.245 227.081H167.719V186.785H167.245H166.771V227.081H167.245ZM148.631 227.079H148.157V251.262H148.631H149.105V227.079H148.631ZM129.905 227.555H129.431V251.259H129.905H130.379V227.555H129.905ZM111.653 227.079H111.179V251.262H111.653H112.127V227.079H111.653ZM92.216 227.079H91.7419V251.262H92.216H92.6901V227.079H92.216ZM73.7275 227.079H73.2534V251.262H73.7275H74.2015V227.079H73.7275ZM92.4532 183.467H92.9273L92.9274 151.23H92.4534H91.9793L91.9792 183.467H92.4532ZM92.4534 151.23L92.1209 151.568L125.78 184.675L126.112 184.337L126.445 183.999L92.7858 150.892L92.4534 151.23ZM25.5099 67.7925H25.0358L25.0357 84.3851H25.5098H25.9839L25.9839 67.7925H25.5099ZM0.482858 84.3851L0.482858 84.8592L25.5098 84.8592V84.3851V83.9111L0.482859 83.9111L0.482858 84.3851ZM25.5098 84.3851H25.0357V101.452H25.5098H25.9839V84.3851H25.5098ZM0.482858 101.452L0.482859 101.926L25.5098 101.926V101.452V100.978L0.482858 100.978L0.482858 101.452ZM25.5098 101.452H25.0357V118.993H25.5098H25.9839V101.452H25.5098ZM0.482858 118.993L0.482859 119.467L25.5098 119.467V118.993V118.518L0.482858 118.519L0.482858 118.993ZM25.5098 118.993H25.0357V136.059H25.5098H25.9839V118.993H25.5098ZM0.482858 136.059L0.482856 136.533L25.5098 136.533L25.5098 136.059L25.5098 135.585L0.48286 135.585L0.482858 136.059ZM25.5098 136.059H25.0357V153.126H25.5098H25.9839V136.059H25.5098ZM0.482858 153.126L0.482859 153.6L25.5098 153.6V153.126V152.652L0.482858 152.652L0.482858 153.126ZM25.5098 153.126H25.0357V170.193H25.5098H25.9839V153.126H25.5098ZM0.482858 170.193L0.482859 170.667L25.5098 170.667V170.193V169.718L0.482858 169.718L0.482858 170.193ZM25.5098 170.193H25.0357V187.259H25.5098H25.9839V170.193H25.5098ZM0.482858 187.259V187.733H25.5098V187.259V186.785H0.482858V187.259ZM148.394 95.7629L148.735 96.0926L206.098 36.8333L205.757 36.5036L205.416 36.1739L148.053 95.4331L148.394 95.7629ZM205.757 36.5036V36.9777H219.979V36.5036V36.0295H205.757V36.5036ZM219.979 36.5036L219.505 36.5002L219.031 101.922L219.505 101.926L219.979 101.929L220.453 36.507L219.979 36.5036ZM28.9271 136.059V136.533H32.7197V136.059V135.585H28.9271V136.059ZM32.7197 136.059H33.1938V129.896H32.7197H32.2457V136.059H32.7197ZM32.7197 129.896L32.2882 130.092L34.6585 135.307L35.0901 135.111L35.5217 134.915L33.1513 129.7L32.7197 129.896ZM35.0901 135.111L35.563 135.144L37.9334 101.485L37.4605 101.452L36.9876 101.419L34.6172 135.078L35.0901 135.111ZM37.4605 101.452L36.9867 101.467L38.883 158.83L39.3568 158.815L39.8306 158.799L37.9343 101.436L37.4605 101.452ZM39.3568 158.815L39.8283 158.864L42.1987 136.108L41.7271 136.059L41.2556 136.01L38.8853 158.766L39.3568 158.815ZM41.7271 136.059V136.533H45.5197V136.059V135.585H41.7271V136.059ZM53.5791 136.059V136.533H58.7939V136.059V135.585H53.5791V136.059ZM58.7939 136.059L59.2673 136.085L61.1636 101.478L60.6902 101.452L60.2169 101.426L58.3206 136.033L58.7939 136.059ZM60.6902 101.452L60.2166 101.471L62.5869 158.834L63.0606 158.815L63.5343 158.795L61.1639 101.432L60.6902 101.452ZM63.0606 158.815L63.531 158.874L66.3755 136.118L65.9051 136.059L65.4346 136L62.5902 158.756L63.0606 158.815ZM65.9051 136.059V136.533H70.1717V136.059V135.585H65.9051V136.059ZM99.0903 143.644L98.7551 143.98L129.096 174.32L129.431 173.985L129.766 173.65L99.4255 143.309L99.0903 143.644ZM129.431 173.985L129.765 174.322L185.231 119.329L184.898 118.993L184.564 118.656L129.097 173.649L129.431 173.985ZM113.313 129.896L112.982 130.236L129.101 145.881L129.431 145.541L129.761 145.201L113.643 129.556L113.313 129.896ZM129.431 145.541L129.768 145.874L170.539 104.63L170.201 104.296L169.864 103.963L129.094 145.207L129.431 145.541ZM45.994 216.178V216.652H100.038V216.178V215.704H45.994V216.178ZM100.038 216.178L100.47 216.374L102.84 211.159L102.409 210.963L101.977 210.767L99.6069 215.982L100.038 216.178ZM102.409 210.963L101.955 211.099L104.799 220.581L105.253 220.444L105.707 220.308L102.863 210.827L102.409 210.963ZM105.253 220.444L105.627 220.735L108.946 216.469L108.572 216.178L108.198 215.887L104.879 220.153L105.253 220.444ZM108.572 216.178V216.652H156.453V216.178V215.704H108.572V216.178ZM122.32 195.318V194.844H63.0606V195.318V195.793H122.32V195.318ZM63.0606 195.318H63.5347V166.874H63.0606H62.5866V195.318H63.0606ZM191.061 136.059V136.533H193.905V136.059V135.585H191.061V136.059ZM193.905 136.059L194.378 136.091L194.852 128.98L194.379 128.948L193.906 128.917L193.432 136.028L193.905 136.059ZM194.379 128.948L193.908 128.994L196.752 157.913L197.224 157.867L197.696 157.82L194.851 128.902L194.379 128.948ZM197.224 157.867L197.694 157.928L200.538 136.121L200.068 136.059L199.598 135.998L196.754 157.805L197.224 157.867ZM200.068 136.059V136.533H205.283V136.059V135.585H200.068V136.059ZM12.8087 26.5481H12.3347V59.2592H12.8087H13.2828V26.5481H12.8087ZM25.5098 12.8V13.274H66.3791V12.8V12.3259H25.5098V12.8ZM194.379 12.8V13.274H230.959V12.8V12.3259H194.379V12.8ZM243.683 25.6H243.209V58.7852H243.683H244.157V25.6H243.683ZM243.683 195.318H243.209V226.607H243.683H244.157V195.318H243.683ZM194.379 238.933V239.407H228.513V238.933V238.459H194.379V238.933ZM25.5098 238.933V239.407H65.905V238.933V238.459H25.5098V238.933ZM12.8087 195.318H12.3347V221.867H12.8087H13.2828V195.318H12.8087ZM211.92 135.111V135.585H215.238V135.111V134.637H211.92V135.111ZM215.238 135.111L215.711 135.145L216.185 128.508L215.713 128.474L215.24 128.44L214.766 135.077L215.238 135.111ZM215.713 128.474L215.255 128.599L216.677 133.814L217.135 133.689L217.592 133.564L216.17 128.349L215.713 128.474ZM217.135 133.689L217.608 133.721L219.978 99.1138L219.505 99.0814L219.032 99.049L216.662 133.656L217.135 133.689ZM219.505 99.0814L219.031 99.0969L220.928 157.408L221.401 157.393L221.875 157.377L219.979 99.066L219.505 99.0814ZM221.401 157.393L221.872 157.453L224.716 135.171L224.246 135.111L223.776 135.051L220.931 157.333L221.401 157.393ZM224.246 135.111V135.585H227.564V135.111V134.637H224.246V135.111ZM151.712 30.8148H151.238C151.238 31.8621 150.389 32.7111 149.342 32.7111V33.1851V33.6592C150.913 33.6592 152.186 32.3857 152.186 30.8148H151.712ZM149.342 33.1851V32.7111C148.295 32.7111 147.446 31.8621 147.446 30.8148H146.972H146.497C146.497 32.3857 147.771 33.6592 149.342 33.6592V33.1851ZM146.972 30.8148H147.446C147.446 29.7675 148.295 28.9185 149.342 28.9185V28.4444V27.9703C147.771 27.9703 146.497 29.2438 146.497 30.8148H146.972ZM149.342 28.4444V28.9185C150.389 28.9185 151.238 29.7675 151.238 30.8148H151.712H152.186C152.186 29.2438 150.913 27.9703 149.342 27.9703V28.4444ZM150.764 30.8147H150.29C150.29 31.3384 149.866 31.7628 149.342 31.7628V32.2369V32.711C150.389 32.711 151.238 31.862 151.238 30.8147H150.764ZM149.342 32.2369V31.7628C148.818 31.7628 148.394 31.3383 148.394 30.8147H147.92H147.446C147.446 31.862 148.295 32.711 149.342 32.711V32.2369ZM147.92 30.8147H148.394C148.394 30.2911 148.818 29.8665 149.342 29.8665V29.3925V28.9184C148.295 28.9184 147.446 29.7674 147.446 30.8147H147.92ZM149.342 29.3925V29.8665C149.866 29.8665 150.29 30.291 150.29 30.8147H150.764H151.238C151.238 29.7674 150.389 28.9184 149.342 28.9184V29.3925ZM136.542 96.237H136.068C136.068 97.2843 135.219 98.1333 134.172 98.1333V98.6073V99.0814C135.743 99.0814 137.016 97.8079 137.016 96.237H136.542ZM134.172 98.6073V98.1333C133.125 98.1333 132.276 97.2843 132.276 96.237H131.802H131.328C131.328 97.8079 132.601 99.0814 134.172 99.0814V98.6073ZM131.802 96.237H132.276C132.276 95.1897 133.125 94.3407 134.172 94.3407V93.8666V93.3925C132.601 93.3925 131.328 94.666 131.328 96.237H131.802ZM134.172 93.8666V94.3407C135.219 94.3407 136.068 95.1897 136.068 96.237H136.542H137.016C137.016 94.666 135.743 93.3925 134.172 93.3925V93.8666ZM135.594 96.237H135.12C135.12 96.7606 134.695 97.1851 134.172 97.1851V97.6592V98.1333C135.219 98.1333 136.068 97.2843 136.068 96.237H135.594ZM134.172 97.6592V97.1851C133.648 97.1851 133.224 96.7606 133.224 96.237H132.75H132.276C132.276 97.2843 133.125 98.1333 134.172 98.1333V97.6592ZM132.75 96.237H133.224C133.224 95.7133 133.648 95.2888 134.172 95.2888V94.8147V94.3407C133.125 94.3407 132.276 95.1897 132.276 96.237H132.75ZM134.172 94.8147V95.2888C134.695 95.2888 135.12 95.7133 135.12 96.237H135.594H136.068C136.068 95.1897 135.219 94.3407 134.172 94.3407V94.8147ZM99.5642 127.526H99.0902C99.0902 128.573 98.2412 129.422 97.1939 129.422V129.896V130.37C98.7648 130.37 100.038 129.097 100.038 127.526H99.5642ZM97.1939 129.896V129.422C96.1466 129.422 95.2976 128.573 95.2976 127.526H94.8235H94.3494C94.3494 129.097 95.6229 130.37 97.1939 130.37V129.896ZM94.8235 127.526H95.2976C95.2976 126.479 96.1466 125.63 97.1939 125.63V125.155V124.681C95.6229 124.681 94.3494 125.955 94.3494 127.526H94.8235ZM97.1939 125.155V125.63C98.2412 125.63 99.0902 126.479 99.0902 127.526H99.5642H100.038C100.038 125.955 98.7648 124.681 97.1939 124.681V125.155ZM98.6164 127.526H98.1423C98.1423 128.05 97.7178 128.474 97.1942 128.474V128.948V129.422C98.2415 129.422 99.0905 128.573 99.0905 127.526H98.6164ZM97.1942 128.948V128.474C96.6705 128.474 96.246 128.05 96.246 127.526H95.772H95.2979C95.2979 128.573 96.1469 129.422 97.1942 129.422V128.948ZM95.772 127.526H96.246C96.246 127.002 96.6705 126.578 97.1942 126.578V126.104V125.63C96.1469 125.63 95.2979 126.479 95.2979 127.526H95.772ZM97.1942 126.104V126.578C97.7178 126.578 98.1423 127.002 98.1423 127.526H98.6164H99.0905C99.0905 126.479 98.2415 125.63 97.1942 125.63V126.104ZM52.1571 84.3851H51.683C51.683 85.6942 50.6218 86.7555 49.3127 86.7555V87.2296V87.7036C51.1454 87.7036 52.6312 86.2179 52.6312 84.3851H52.1571ZM49.3127 87.2296V86.7555C48.0036 86.7555 46.9423 85.6942 46.9423 84.3851H46.4682H45.9942C45.9942 86.2179 47.4799 87.7036 49.3127 87.7036V87.2296ZM46.4682 84.3851H46.9423C46.9423 83.076 48.0036 82.0147 49.3127 82.0147V81.5407V81.0666C47.4799 81.0666 45.9942 82.5523 45.9942 84.3851H46.4682ZM49.3127 81.5407V82.0147C50.6218 82.0147 51.683 83.076 51.683 84.3851H52.1571H52.6312C52.6312 82.5523 51.1454 81.0666 49.3127 81.0666V81.5407ZM51.0192 84.385H50.5451C50.5451 85.0658 49.9933 85.6176 49.3125 85.6176V86.0917V86.5658C50.5169 86.5658 51.4933 85.5894 51.4933 84.385H51.0192ZM49.3125 86.0917V85.6176C48.6318 85.6176 48.0799 85.0658 48.0799 84.385H47.6059H47.1318C47.1318 85.5894 48.1081 86.5658 49.3125 86.5658V86.0917ZM47.6059 84.385H48.0799C48.0799 83.7043 48.6318 83.1525 49.3125 83.1525V82.6784V82.2043C48.1081 82.2043 47.1318 83.1807 47.1318 84.385H47.6059ZM49.3125 82.6784V83.1525C49.9933 83.1525 50.5451 83.7043 50.5451 84.385H51.0192H51.4933C51.4933 83.1807 50.5169 82.2043 49.3125 82.2043V82.6784ZM210.498 199.585H210.024C210.024 200.633 209.175 201.481 208.127 201.481V201.956V202.43C209.698 202.43 210.972 201.156 210.972 199.585H210.498ZM208.127 201.956V201.481C207.08 201.481 206.231 200.632 206.231 199.585H205.757H205.283C205.283 201.156 206.556 202.43 208.127 202.43V201.956ZM205.757 199.585H206.231C206.231 198.538 207.08 197.689 208.127 197.689V197.215V196.741C206.556 196.741 205.283 198.014 205.283 199.585H205.757ZM208.127 197.215V197.689C209.175 197.689 210.024 198.538 210.024 199.585H210.498H210.972C210.972 198.014 209.698 196.741 208.127 196.741V197.215ZM209.55 199.585H209.076C209.076 200.109 208.651 200.533 208.127 200.533V201.007V201.481C209.175 201.481 210.024 200.632 210.024 199.585H209.55ZM208.127 201.007V200.533C207.604 200.533 207.179 200.109 207.179 199.585H206.705H206.231C206.231 200.632 207.08 201.481 208.127 201.481V201.007ZM206.705 199.585H207.179C207.179 199.062 207.604 198.637 208.127 198.637V198.163V197.689C207.08 197.689 206.231 198.538 206.231 199.585H206.705ZM208.127 198.163V198.637C208.651 198.637 209.076 199.062 209.076 199.585H209.55H210.024C210.024 198.538 209.175 197.689 208.127 197.689V198.163ZM184.898 106.667H184.424C184.424 107.714 183.575 108.563 182.528 108.563V109.037V109.511C184.098 109.511 185.372 108.238 185.372 106.667H184.898ZM182.528 109.037V108.563C181.48 108.563 180.631 107.714 180.631 106.667H180.157H179.683C179.683 108.238 180.957 109.511 182.528 109.511V109.037ZM180.157 106.667H180.631C180.631 105.619 181.48 104.77 182.528 104.77V104.296V103.822C180.957 103.822 179.683 105.096 179.683 106.667H180.157ZM182.528 104.296V104.77C183.575 104.77 184.424 105.619 184.424 106.667H184.898H185.372C185.372 105.096 184.098 103.822 182.528 103.822V104.296ZM183.95 106.667H183.475C183.475 107.19 183.051 107.615 182.527 107.615V108.089V108.563C183.575 108.563 184.424 107.714 184.424 106.667H183.95ZM182.527 108.089V107.615C182.004 107.615 181.579 107.19 181.579 106.667H181.105H180.631C180.631 107.714 181.48 108.563 182.527 108.563V108.089ZM181.105 106.667H181.579C181.579 106.143 182.004 105.719 182.527 105.719V105.244V104.77C181.48 104.77 180.631 105.619 180.631 106.667H181.105ZM182.527 105.244V105.719C183.051 105.719 183.475 106.143 183.475 106.667H183.95H184.424C184.424 105.619 183.575 104.77 182.527 104.77V105.244ZM169.727 185.363H169.253C169.253 186.41 168.404 187.259 167.357 187.259V187.733V188.207C168.928 188.207 170.202 186.934 170.202 185.363H169.727ZM167.357 187.733V187.259C166.31 187.259 165.461 186.41 165.461 185.363H164.987H164.513C164.513 186.934 165.786 188.207 167.357 188.207V187.733ZM164.987 185.363H165.461C165.461 184.316 166.31 183.467 167.357 183.467V182.993V182.518C165.786 182.518 164.513 183.792 164.513 185.363H164.987ZM167.357 182.993V183.467C168.404 183.467 169.253 184.316 169.253 185.363H169.727H170.202C170.202 183.792 168.928 182.518 167.357 182.518V182.993ZM168.779 185.363H168.305C168.305 185.887 167.881 186.311 167.357 186.311V186.785V187.259C168.404 187.259 169.253 186.41 169.253 185.363H168.779ZM167.357 186.785V186.311C166.834 186.311 166.409 185.887 166.409 185.363H165.935H165.461C165.461 186.41 166.31 187.259 167.357 187.259V186.785ZM165.935 185.363H166.409C166.409 184.839 166.834 184.415 167.357 184.415V183.941V183.467C166.31 183.467 165.461 184.316 165.461 185.363H165.935ZM167.357 183.941V184.415C167.881 184.415 168.305 184.839 168.305 185.363H168.779H169.253C169.253 184.316 168.404 183.467 167.357 183.467V183.941ZM94.8235 30.8148H94.3494C94.3494 31.8621 93.5004 32.7111 92.4531 32.7111V33.1851V33.6592C94.0241 33.6592 95.2976 32.3857 95.2976 30.8148H94.8235ZM92.4531 33.1851V32.7111C91.4058 32.7111 90.5568 31.8621 90.5568 30.8148H90.0827H89.6087C89.6087 32.3857 90.8822 33.6592 92.4531 33.6592V33.1851ZM90.0827 30.8148H90.5568C90.5568 29.7675 91.4058 28.9185 92.4531 28.9185V28.4444V27.9703C90.8822 27.9703 89.6087 29.2438 89.6087 30.8148H90.0827ZM92.4531 28.4444V28.9185C93.5004 28.9185 94.3494 29.7675 94.3494 30.8148H94.8235H95.2976C95.2976 29.2438 94.0241 27.9703 92.4531 27.9703V28.4444ZM93.8754 30.8147H93.4013C93.4013 31.3383 92.9768 31.7628 92.4532 31.7628V32.2369V32.711C93.5005 32.711 94.3494 31.862 94.3494 30.8147H93.8754ZM92.4532 32.2369V31.7628C91.9295 31.7628 91.505 31.3383 91.505 30.8147H91.0309H90.5569C90.5569 31.862 91.4059 32.711 92.4532 32.711V32.2369ZM91.0309 30.8147H91.505C91.505 30.2911 91.9295 29.8665 92.4532 29.8665V29.3925V28.9184C91.4059 28.9184 90.5569 29.7674 90.5569 30.8147H91.0309ZM92.4532 29.3925V29.8665C92.9768 29.8665 93.4013 30.291 93.4013 30.8147H93.8754H94.3494C94.3494 29.7674 93.5005 28.9184 92.4532 28.9184V29.3925ZM0.482858 67.7925H0.00878432L0.00888062 250.785H0.482955H0.957029L0.956932 67.7925H0.482858ZM0.00888062 250.311V250.785H256.009V250.311V249.837H0.00888062V250.311ZM25.1348 226.607V227.082H185.846V226.607V226.133H25.1348V226.607ZM92.4532 0.713553L92.452 1.18763L111.415 1.23525L111.416 0.761176L111.417 0.287104L92.4544 0.23948L92.4532 0.713553Z" fill="url(#paint0_linear_123_352)"/>
<defs>
<linearGradient id="paint0_linear_123_352" x1="128.009" y1="0.473999" x2="128.009" y2="251.262" gradientUnits="userSpaceOnUse">
<stop stop-color="#5FE1C7"/>
<stop offset="1" stop-color="#347B6D"/>
</linearGradient>
</defs>
</svg>
